<svg width="24" height="24" viewBox="0 0 24 24" fill="none" xmlns="http://www.w3.org/2000/svg">
<path d="M6.23643 6.19157C6.00649 6.95625 6.66534 7.6327 7.46384 7.6327V7.6327C8.20101 7.6327 8.77047 7.03216 9.10949 6.37756C9.60249 5.42568 10.5961 4.86696 11.933 4.86696C13.7679 4.86696 14.9598 5.93466 14.9598 7.38829C14.9598 8.71327 14.3839 9.45938 12.7634 10.3984C10.9286 11.4533 10.1116 12.611 10.1786 14.4248V14.4248C10.186 14.9954 10.6506 15.454 11.2212 15.454H12.1796C12.613 15.454 12.9643 15.1026 12.9643 14.6693V14.6693C12.9643 13.3443 13.4598 12.6625 15.1875 11.6848C16.9554 10.6686 18 9.26642 18 7.27251C18 4.51963 15.6161 2.5 12.0804 2.5C8.86683 2.5 6.89104 4.01469 6.23643 6.19157ZM11.7455 21.5C12.9777 21.5 13.808 20.7282 13.808 19.5833C13.808 18.4255 12.9777 17.6537 11.7455 17.6537C10.5134 17.6537 9.66964 18.4255 9.66964 19.5833C9.66964 20.7282 10.5134 21.5 11.7455 21.5Z" stroke="#222222"/>
</svg>
