<svg width="24" height="24" viewBox="0 0 24 24" fill="none" xmlns="http://www.w3.org/2000/svg">
<g clip-path="url(#clip0_270_2865)">
<path d="M8 22C9.10457 22 10 21.1046 10 20C10 18.8954 9.10457 18 8 18C6.89543 18 6 18.8954 6 20C6 21.1046 6.89543 22 8 22Z" stroke="#F93A3A" stroke-linecap="round" stroke-linejoin="round"/>
<path d="M18 22C19.1046 22 20 21.1046 20 20C20 18.8954 19.1046 18 18 18C16.8954 18 16 18.8954 16 20C16 21.1046 16.8954 22 18 22Z" stroke="#F93A3A" stroke-linecap="round" stroke-linejoin="round"/>
<path d="M5.31579 20H3.10526V13M2 3H14.1579V20M10 20H13.0526H15.86M20.7895 20H23V11.5M23 11.5H14.1579M23 11.5L19.6842 4.41667H14.1579" stroke="#F93A3A" stroke-linecap="round" stroke-linejoin="round"/>
<path d="M2 10L10 10" stroke="#F93A3A" stroke-linecap="round" stroke-linejoin="round"/>
<path d="M1 7L9 7" stroke="#F93A3A" stroke-linecap="round" stroke-linejoin="round"/>
</g>
<defs>
<clipPath id="clip0_270_2865">
<rect width="24" height="24" fill="white"/>
</clipPath>
</defs>
</svg>
