<svg width="16" height="16" viewBox="0 0 16 16" fill="none" xmlns="http://www.w3.org/2000/svg">
<path d="M5.70312 14.1031C4.89374 12.3969 5.33124 11.4344 5.96562 10.5375C6.64374 9.50935 6.81874 8.54685 6.81874 8.54685C6.81874 8.54685 7.36562 9.22498 7.16874 10.3406C8.10937 9.26873 8.26249 7.58435 8.15312 6.94998C10.275 8.43748 11.2156 11.6969 9.96874 14.0812C16.5094 10.3406 11.5875 4.78435 10.7344 4.19373C11.0406 4.8281 11.0844 5.89998 10.4719 6.4031C9.48749 2.61873 7.05937 1.89685 7.05937 1.89685C7.36562 3.79998 6.03124 5.8781 4.76249 7.4531C4.71874 6.68748 4.67499 6.18435 4.25937 5.41873C4.17187 6.81873 3.12187 7.93435 2.81562 9.33435C2.42187 11.2594 3.09999 12.6156 5.70312 14.1031Z" fill="#F93A3A"/>
</svg>
