<svg width="15" height="15" viewBox="0 0 15 15" fill="none" xmlns="http://www.w3.org/2000/svg">
<path d="M4.25183 8.87229C3.17308 7.7196 3.17308 5.85071 4.25183 4.69802C5.33058 3.54533 7.07958 3.54533 8.15833 4.69802L8.85214 5.43939L9.44455 4.80638C10.4673 3.71353 12.1255 3.71353 13.1482 4.80638C14.171 5.89923 14.171 7.67109 13.1482 8.76393L8.64933 13.5712L4.25183 8.87229Z" stroke="#222222" stroke-linejoin="round"/>
<path d="M8.97305 9.89391H9.51538L9.16314 9.48153L6.51813 6.38499C6.28431 6.11125 5.88643 6.11125 5.6526 6.38499C5.4387 6.63541 5.4387 7.02752 5.6526 7.27794L6.77364 8.59035H1.28069C0.917573 8.59035 0.6875 8.92057 0.6875 9.24213C0.6875 9.56369 0.917573 9.89391 1.28069 9.89391H8.97305Z" fill="black" stroke="white" stroke-width="0.5" stroke-linecap="round"/>
</svg>
