<svg width="106" height="19" viewBox="0 0 106 19" fill="none" xmlns="http://www.w3.org/2000/svg">
<rect x="38" width="30" height="19" rx="3" fill="#0F3560"/>
<path d="M55.6179 14.168H50.3684V4.83203H55.6179V14.168Z" fill="#FF5F00"/>
<path d="M50.7047 9.5C50.7047 7.60614 51.6007 5.91915 52.9961 4.83199C51.9757 4.037 50.6879 3.5625 49.2883 3.5625C45.9749 3.5625 43.2891 6.22076 43.2891 9.5C43.2891 12.7792 45.9749 15.4375 49.2883 15.4375C50.6879 15.4375 51.9757 14.963 52.9961 14.168C51.6007 13.0808 50.7047 11.3939 50.7047 9.5Z" fill="#EB001B"/>
<path d="M62.6979 9.5C62.6979 12.7792 60.012 15.4375 56.6987 15.4375C55.2991 15.4375 54.0113 14.963 52.9905 14.168C54.3862 13.0808 55.2823 11.3939 55.2823 9.5C55.2823 7.60614 54.3862 5.91915 52.9905 4.83199C54.0113 4.037 55.2991 3.5625 56.6987 3.5625C60.012 3.5625 62.6979 6.22076 62.6979 9.5Z" fill="#F79E1B"/>
<path d="M47.8035 9.53763C47.8035 9.27829 47.9752 9.06523 48.2558 9.06523C48.524 9.06523 48.705 9.2691 48.705 9.53763C48.705 9.80617 48.524 10.01 48.2558 10.01C47.9752 10.01 47.8035 9.79698 47.8035 9.53763ZM49.0107 9.53763V8.79987H48.6864V8.97901C48.5836 8.84616 48.4276 8.76277 48.2155 8.76277C47.7974 8.76277 47.4696 9.08713 47.4696 9.53763C47.4696 9.98849 47.7974 10.3125 48.2155 10.3125C48.4276 10.3125 48.5836 10.2291 48.6864 10.0963V10.2754H49.0107V9.53763ZM59.9665 9.53763C59.9665 9.27829 60.1383 9.06523 60.4189 9.06523C60.6874 9.06523 60.8681 9.2691 60.8681 9.53763C60.8681 9.80617 60.6874 10.01 60.4189 10.01C60.1383 10.01 59.9665 9.79698 59.9665 9.53763ZM61.1741 9.53763V8.20733H60.8495V8.97901C60.7467 8.84616 60.5907 8.76277 60.3786 8.76277C59.9605 8.76277 59.6327 9.08713 59.6327 9.53763C59.6327 9.98849 59.9605 10.3125 60.3786 10.3125C60.5907 10.3125 60.7467 10.2291 60.8495 10.0963V10.2754H61.1741V9.53763ZM53.035 9.05003C53.2439 9.05003 53.3782 9.17971 53.4124 9.40796H52.6387C52.6733 9.1949 52.804 9.05003 53.035 9.05003ZM53.0414 8.76277C52.6044 8.76277 52.2988 9.07759 52.2988 9.53763C52.2988 10.0069 52.6169 10.3125 53.0632 10.3125C53.2878 10.3125 53.4935 10.257 53.6745 10.1058L53.5156 9.868C53.3906 9.96658 53.2314 10.0224 53.0818 10.0224C52.8729 10.0224 52.6826 9.92666 52.6358 9.66095H53.7431C53.7463 9.62102 53.7495 9.58074 53.7495 9.53763C53.7463 9.07759 53.4592 8.76277 53.0414 8.76277ZM56.9562 9.53763C56.9562 9.27829 57.1279 9.06523 57.4086 9.06523C57.6767 9.06523 57.8578 9.2691 57.8578 9.53763C57.8578 9.80617 57.6767 10.01 57.4086 10.01C57.1279 10.01 56.9562 9.79698 56.9562 9.53763ZM58.1634 9.53763V8.79987H57.8392V8.97901C57.736 8.84616 57.5803 8.76277 57.3682 8.76277C56.9501 8.76277 56.6224 9.08713 56.6224 9.53763C56.6224 9.98849 56.9501 10.3125 57.3682 10.3125C57.5803 10.3125 57.736 10.2291 57.8392 10.0963V10.2754H58.1634V9.53763ZM55.1252 9.53763C55.1252 9.98531 55.4401 10.3125 55.9207 10.3125C56.1453 10.3125 56.2949 10.263 56.457 10.1365L56.3014 9.87719C56.1796 9.96376 56.0518 10.01 55.9111 10.01C55.6522 10.0069 55.4619 9.82172 55.4619 9.53763C55.4619 9.25355 55.6522 9.06841 55.9111 9.06523C56.0518 9.06523 56.1796 9.11151 56.3014 9.19808L56.457 8.93873C56.2949 8.81224 56.1453 8.76277 55.9207 8.76277C55.4401 8.76277 55.1252 9.08996 55.1252 9.53763ZM59.3053 8.76277C59.1182 8.76277 58.9964 8.84934 58.9121 8.97901V8.79987H58.5908V10.2754H58.9154V9.44824C58.9154 9.20409 59.0214 9.06841 59.2335 9.06841C59.2992 9.06841 59.3677 9.07759 59.4363 9.10551L59.5363 8.80305C59.4645 8.77514 59.371 8.76277 59.3053 8.76277ZM50.6142 8.91718C50.4582 8.81542 50.2432 8.76277 50.0061 8.76277C49.6284 8.76277 49.3852 8.94191 49.3852 9.23518C49.3852 9.4758 49.5662 9.6242 49.8997 9.67049L50.0529 9.69204C50.2307 9.71678 50.3146 9.76306 50.3146 9.84645C50.3146 9.96058 50.1961 10.0256 49.9747 10.0256C49.7501 10.0256 49.588 9.95457 49.4788 9.87118L49.3259 10.121C49.5037 10.2507 49.7283 10.3125 49.9715 10.3125C50.4021 10.3125 50.6517 10.1118 50.6517 9.8309C50.6517 9.57156 50.4553 9.43587 50.1307 9.38959L49.9779 9.36768C49.8376 9.34931 49.7251 9.32175 49.7251 9.22281C49.7251 9.11469 49.8312 9.05003 50.009 9.05003C50.1993 9.05003 50.3835 9.12105 50.4739 9.17653L50.6142 8.91718ZM54.7974 8.76277C54.6103 8.76277 54.4886 8.84934 54.4047 8.97901V8.79987H54.0833V10.2754H54.4075V9.44824C54.4075 9.20409 54.5136 9.06841 54.7257 9.06841C54.7914 9.06841 54.8599 9.07759 54.9285 9.10551L55.0285 8.80305C54.9567 8.77514 54.8631 8.76277 54.7974 8.76277ZM52.0306 8.79987H51.5004V8.35219H51.1726V8.79987H50.8702V9.09314H51.1726V9.76624C51.1726 10.1086 51.3069 10.3125 51.6904 10.3125C51.831 10.3125 51.9931 10.2694 52.096 10.1984L52.0024 9.92348C51.9057 9.97895 51.7996 10.0069 51.7153 10.0069C51.5532 10.0069 51.5004 9.90793 51.5004 9.75988V9.09314H52.0306V8.79987ZM47.1829 10.2754V9.34931C47.1829 9.00056 46.9583 8.76595 46.5962 8.76277C46.4059 8.75959 46.2096 8.81824 46.0721 9.0253C45.9693 8.8617 45.8072 8.76277 45.5794 8.76277C45.4201 8.76277 45.2644 8.80906 45.1427 8.98184V8.79987H44.8181V10.2754H45.1455V9.45743C45.1455 9.20126 45.2891 9.06523 45.5108 9.06523C45.7261 9.06523 45.835 9.20409 45.835 9.45425V10.2754H46.1628V9.45743C46.1628 9.20126 46.3124 9.06523 46.5277 9.06523C46.7491 9.06523 46.8551 9.20409 46.8551 9.45425V10.2754H47.1829Z" fill="white"/>
<rect x="76" width="30" height="19" rx="3" fill="#306FC8"/>
<mask id="mask0_6166_22251" style="mask-type:alpha" maskUnits="userSpaceOnUse" x="76" y="0" width="30" height="19">
<rect x="76" width="30" height="19" rx="3" fill="url(#paint0_linear_6166_22251)"/>
</mask>
<g mask="url(#mask0_6166_22251)">
<path d="M88.9839 13.9144V11.1484L87.6917 12.5106L88.9839 13.9144Z" fill="white"/>
<path d="M83.5681 11.4961V12.1187L85.4158 12.1149V12.8281H83.5681V13.5111H85.6395L86.6038 12.4998L85.6781 11.4961H83.5681Z" fill="white"/>
<path d="M91.4177 6.25277C91.5257 6.1924 91.5913 6.07165 91.5913 5.92448C91.5913 5.77732 91.5219 5.67166 91.4177 5.61506C91.3175 5.55846 91.167 5.55469 91.0166 5.55469H89.9751V6.32447H91.005C91.167 6.32447 91.302 6.31692 91.4177 6.25277Z" fill="white"/>
<path d="M77.5508 6.79931H78.7041L78.1255 5.42578L77.5508 6.79931Z" fill="white"/>
<path d="M90.928 11.4961H89.8286V12.364H90.9202C91.2404 12.364 91.441 12.213 91.441 11.9149C91.4371 11.6168 91.2288 11.4961 90.928 11.4961Z" fill="white"/>
<path d="M77.7667 8.1976H78.4918L78.8197 8.97115H81.6548V8.3825L81.9094 8.97115H83.3752L83.6298 8.37495V8.97115H90.6733V7.71083H90.8122C90.9124 7.71083 90.9394 7.72215 90.9394 7.87686V8.97115H94.5808V8.67305C94.8701 8.82776 95.3252 8.97115 95.9347 8.97115H97.4661L97.7978 8.1976H98.523L98.8508 8.97115H101.794V8.23911L102.245 8.97115H104.61V4.15625H102.272V4.72227L101.937 4.15625H99.5336V4.72227L99.2404 4.15625H95.9926C95.4448 4.15625 94.9626 4.22795 94.5808 4.43171V4.15625H92.3435V4.43171C92.0812 4.22417 91.7533 4.15625 91.383 4.15625H83.1939L82.6385 5.39771L82.083 4.15625H79.5063V4.72227L79.2132 4.15625H77.0145L76 6.43918V8.97115H77.4388L77.7667 8.1976ZM94.7389 5.23923C95.0089 4.96377 95.441 4.83547 96.0234 4.83547H96.8296V5.57506H96.0388C95.7264 5.57506 95.5528 5.62034 95.387 5.7826C95.2404 5.92599 95.1401 6.20145 95.1401 6.5637C95.1401 6.9335 95.2134 7.19387 95.3792 7.37499C95.5027 7.51083 95.738 7.55234 95.9655 7.55234H96.3436L97.5316 4.83547H98.7891L100.22 8.10326V4.83547H101.509L102.99 7.23915V4.83547H103.858V8.29194H102.654L101.061 5.70336V8.29194H99.3446L99.0206 7.51838H97.2655L96.9415 8.29194H95.9617C95.549 8.29194 95.0282 8.1976 94.7351 7.90705C94.438 7.61272 94.2876 7.21651 94.2876 6.59012C94.2876 6.07693 94.3802 5.60902 94.7389 5.23923ZM93.0108 4.83547H93.8749V8.29194H93.0108V4.83547ZM89.1342 4.83547H91.0783C91.5065 4.83547 91.8228 4.85056 92.0928 5.0015C92.3628 5.15621 92.5287 5.38262 92.5287 5.76751C92.5287 6.31466 92.1507 6.59766 91.9269 6.68445C92.1121 6.75237 92.2702 6.8769 92.3435 6.97878C92.4631 7.14481 92.4824 7.3033 92.4824 7.60517V8.29194H91.6338V7.85422C91.6338 7.65045 91.6531 7.34858 91.4949 7.18632C91.3753 7.0618 91.1902 7.03538 90.8816 7.03538H89.9751V8.29194H89.1304V4.83547H89.1342ZM85.732 4.83547H88.5479V5.55619H86.5729V6.17881H88.4978V6.88822H86.5729V7.57121L88.5479 7.56744V8.28816H85.732V4.83547ZM76.9258 8.29194H76.0077L77.5159 4.83547H78.7734L80.2045 8.10326V4.83547H81.5854L82.6848 7.17877L83.6992 4.83547H85.1033V8.29194H84.2393V5.58638L83.0165 8.29194H82.2759L81.0492 5.58261V8.29194H79.3289L79.0049 7.51838H77.2498L76.9258 8.29194Z" fill="white"/>
<path d="M98.1411 5.42578L97.5664 6.79931H98.7159L98.1411 5.42578Z" fill="white"/>
<path d="M104.131 11.576C104.043 11.6326 104.004 11.7156 104.004 11.825C104.004 11.9533 104.081 12.0439 104.189 12.0816C104.274 12.1118 104.371 12.1194 104.513 12.1194L104.965 12.1307C105.431 12.142 105.74 12.2175 105.929 12.4099C105.956 12.4363 105.979 12.4628 105.998 12.4892V11.5156H104.467C104.317 11.5156 104.212 11.5232 104.131 11.576Z" fill="white"/>
<path d="M104.861 14.2257H103.233V13.4861H104.853C105.011 13.4861 105.123 13.4634 105.192 13.4031C105.25 13.3502 105.293 13.2748 105.293 13.1766C105.293 13.0748 105.25 12.9955 105.188 12.9465C105.127 12.8936 105.038 12.871 104.895 12.871C104.108 12.8484 103.117 12.8974 103.117 11.7993C103.117 11.305 103.437 10.773 104.324 10.773H106.002V10.0938H104.44C103.973 10.0938 103.622 10.1994 103.383 10.3692V10.0938H101.08C100.714 10.0938 100.274 10.1805 100.07 10.3692V10.0938H95.9463V10.3692C95.6184 10.1428 95.0668 10.0938 94.8045 10.0938H92.0851V10.3692C91.8266 10.1239 91.2557 10.0938 90.9047 10.0938H87.8574L87.1593 10.8333L86.5112 10.0938H81.9673V14.9087H86.4302L87.1438 14.1577L87.8227 14.9049L90.5691 14.9087V13.7728H90.843C91.2056 13.7728 91.6376 13.7653 92.0118 13.6068V14.9087H94.2876V13.6483H94.3995C94.5383 13.6483 94.5499 13.6596 94.5499 13.7879V14.9087H101.435C101.867 14.9087 102.334 14.7992 102.589 14.603V14.9087H104.772C105.223 14.9087 105.671 14.8445 106.01 14.686V13.7917C105.79 14.086 105.404 14.2257 104.861 14.2257ZM90.8739 13.071H89.8247V14.2257H88.1814L87.1477 13.0899L86.0676 14.2294H82.7233V10.773H86.1178L87.1515 11.9088L88.2277 10.773H90.9279C91.5913 10.773 92.3435 10.9616 92.3435 11.9163C92.3397 12.871 91.6106 13.071 90.8739 13.071ZM95.9501 12.9163C96.0697 13.0823 96.089 13.2408 96.0928 13.5427V14.2257H95.2442V13.7879C95.2442 13.5842 95.2635 13.2823 95.1054 13.12C94.9819 12.9955 94.8006 12.9691 94.492 12.9691H93.5856V14.2257H92.7408V10.7692H94.6849C95.1131 10.7692 95.4255 10.7843 95.6994 10.939C95.9694 11.0937 96.1353 11.3201 96.1353 11.705C96.1353 12.2522 95.7572 12.5352 95.5374 12.622C95.7225 12.6899 95.8807 12.8144 95.9501 12.9163ZM99.4179 11.4937H97.4468V12.1163H99.3754V12.8295H97.4468V13.5125H99.4217V14.2294H96.6059V10.773H99.4217V11.4937H99.4179ZM101.563 14.2257H99.9193V13.4861H101.555C101.713 13.4861 101.825 13.4634 101.894 13.4031C101.952 13.3502 101.995 13.2748 101.995 13.1766C101.995 13.0748 101.952 12.9955 101.89 12.9465C101.829 12.8936 101.74 12.871 101.597 12.871C100.81 12.8484 99.819 12.8974 99.819 11.7993C99.819 11.3012 100.139 10.773 101.026 10.773H102.716V11.5126H101.169C101.015 11.5126 100.915 11.5163 100.83 11.5692C100.741 11.6258 100.706 11.7088 100.706 11.8182C100.706 11.9465 100.783 12.0371 100.891 12.0748C100.98 12.105 101.073 12.1125 101.215 12.1125L101.667 12.1239C102.133 12.1352 102.442 12.2106 102.631 12.4031C102.797 12.5767 102.886 12.7767 102.886 13.1351C102.889 13.8747 102.419 14.2257 101.563 14.2257Z" fill="white"/>
<path d="M95.0283 11.5527C94.928 11.4999 94.7738 11.4961 94.6272 11.4961H93.5857V12.2659H94.6156C94.7776 12.2659 94.9165 12.2621 95.0283 12.198C95.1363 12.1376 95.2019 12.0168 95.2019 11.8697C95.1981 11.7187 95.1325 11.6131 95.0283 11.5527Z" fill="white"/>
</g>
<rect width="30" height="19" rx="3" fill="#00579F"/>
<path d="M13.48 12.7867H11.6331L12.7883 6.23438H14.6351L13.48 12.7867Z" fill="white"/>
<path d="M20.1754 6.39615C19.8111 6.26357 19.2333 6.11719 18.5188 6.11719C16.6949 6.11719 15.4105 7.00937 15.4026 8.28493C15.3874 9.22603 16.3222 9.74874 17.0213 10.0625C17.7359 10.3832 17.9788 10.5925 17.9788 10.8783C17.9715 11.3172 17.4014 11.5196 16.8696 11.5196C16.1322 11.5196 15.7371 11.4153 15.1367 11.1711L14.8935 11.0664L14.635 12.5372C15.0682 12.7182 15.8663 12.8789 16.6949 12.8859C18.6328 12.8859 19.8945 12.0076 19.9095 10.6482C19.9168 9.90235 19.4232 9.33081 18.3591 8.86378C17.7131 8.56398 17.3175 8.36183 17.3175 8.05507C17.3251 7.77621 17.6521 7.49058 18.3813 7.49058C18.9818 7.47659 19.4229 7.60898 19.7572 7.74146L19.9242 7.81104L20.1754 6.39615Z" fill="white"/>
<path d="M22.6303 10.4654C22.7824 10.089 23.3676 8.63216 23.3676 8.63216C23.36 8.64615 23.5194 8.24879 23.6106 8.00485L23.7397 8.56944C23.7397 8.56944 24.0895 10.1378 24.1654 10.4654C23.8768 10.4654 22.9951 10.4654 22.6303 10.4654ZM24.9101 6.23438H23.4815C23.0409 6.23438 22.7062 6.35278 22.5161 6.77802L19.7727 12.7866H21.7107C21.7107 12.7866 22.0297 11.9779 22.0983 11.8037C22.3109 11.8037 24.1961 11.8037 24.4696 11.8037C24.5227 12.0338 24.69 12.7866 24.69 12.7866H26.4001L24.9101 6.23438Z" fill="white"/>
<path d="M10.0905 6.23438L8.28172 10.7024L8.08406 9.79626C7.74966 8.75065 6.70089 7.61462 5.53052 7.04976L7.1873 12.7798H9.14041L12.0435 6.23438H10.0905Z" fill="white"/>
<path d="M6.60207 6.23438H3.6305L3.6001 6.36677C5.91811 6.91051 7.45329 8.22118 8.08403 9.79654L7.43804 6.78516C7.33169 6.36667 7.00486 6.24818 6.60207 6.23438Z" fill="#FAA61A"/>
<defs>
<linearGradient id="paint0_linear_6166_22251" x1="91" y1="0" x2="91" y2="19" gradientUnits="userSpaceOnUse">
<stop stop-color="#1B8ABA"/>
<stop offset="1" stop-color="#005D9C"/>
</linearGradient>
</defs>
</svg>
