<svg width="24" height="24" viewBox="0 0 24 24" fill="none" xmlns="http://www.w3.org/2000/svg">
<circle cx="12" cy="12" r="9.35" stroke="#F93A5C" stroke-width="1.3"/>
<path fill-rule="evenodd" clip-rule="evenodd" d="M4.38056 18.4767L4.32275 18.0111C5.2869 16.1589 6.90191 14.699 8.8662 13.9353C7.93492 13.0853 7.34997 11.8613 7.34997 10.5C7.34997 7.93185 9.43185 5.84998 12 5.84998C14.5681 5.84998 16.65 7.93185 16.65 10.5C16.65 11.8613 16.065 13.0853 15.1337 13.9353C17.0981 14.699 18.7131 16.159 19.6772 18.0112L19.6194 18.4767C17.7852 20.6325 15.0523 22 12 22C8.9477 22 6.2148 20.6325 4.38056 18.4767ZM8.64997 10.5C8.64997 8.64982 10.1498 7.14998 12 7.14998C13.8501 7.14998 15.35 8.64982 15.35 10.5C15.35 11.8691 14.5286 13.0478 13.349 13.5674L13.4809 14.7991C15.523 15.2167 17.2587 16.4827 18.3014 18.2141C16.6958 19.8421 14.466 20.85 12 20.85C9.53404 20.85 7.30417 19.8421 5.69862 18.2141C6.74129 16.4826 8.47693 15.2167 10.5191 14.7991L10.6509 13.5674C9.47136 13.0478 8.64997 11.8691 8.64997 10.5Z" fill="#F93A5C"/>
</svg>
