<svg width="24" height="24" viewBox="0 0 24 24" fill="none" xmlns="http://www.w3.org/2000/svg">
<path fill-rule="evenodd" clip-rule="evenodd" d="M12.9202 20.9535C12.6176 20.9843 12.3107 21 12 21C9.45044 21 7.14849 19.9399 5.51092 18.2363C6.56754 16.4188 8.36557 15.0863 10.4888 14.6522L10.5902 13.7047C9.35821 13.162 8.49973 11.9307 8.49973 10.5C8.49973 8.567 10.0667 7 11.9997 7C13.9327 7 15.4997 8.567 15.4997 10.5C15.4997 11.9307 14.6413 13.162 13.4093 13.7047L13.5107 14.6522C15.634 15.0863 17.4321 16.4189 18.4887 18.2366C17.0502 19.7329 15.1003 20.7322 12.9202 20.9535ZM19.1725 17.4373C18.163 15.8535 16.6432 14.6262 14.8436 13.9875C15.854 13.1627 16.4997 11.9071 16.4997 10.5C16.4997 8.01472 14.485 6 11.9997 6C9.51445 6 7.49973 8.01472 7.49973 10.5C7.49973 11.9071 8.14548 13.1627 9.15587 13.9875C7.35642 14.6262 5.83668 15.8533 4.82721 17.4369C3.68052 15.9264 3 14.0427 3 12C3 7.02944 7.02944 3 12 3C16.9706 3 21 7.02944 21 12C21 14.0429 20.3194 15.9268 19.1725 17.4373ZM4.52544 18.6433C6.35713 20.7027 9.02706 22 12 22C17.5228 22 22 17.5228 22 12C22 6.47715 17.5228 2 12 2C6.47715 2 2 6.47715 2 12C2 14.5499 2.95439 16.8769 4.52544 18.6433Z" fill="#222222"/>
</svg>
