<svg width="24" height="24" viewBox="0 0 24 24" fill="none" xmlns="http://www.w3.org/2000/svg">
<path fill-rule="evenodd" clip-rule="evenodd" d="M4 19V10.921C4 10.6287 4.12784 10.3511 4.3499 10.1611L11.3499 4.17222C11.7242 3.85202 12.2758 3.85202 12.6501 4.17222L19.6501 10.1611C19.8722 10.3511 20 10.6287 20 10.921V19C20 19.5523 19.5523 20 19 20H15V16.5C15 14.8431 13.6569 13.5 12 13.5C10.3431 13.5 9 14.8431 9 16.5V20H5C4.44772 20 4 19.5523 4 19ZM10 20H14V16.5C14 15.3954 13.1046 14.5 12 14.5C10.8954 14.5 10 15.3954 10 16.5V20ZM3.69981 9.40126C3.25568 9.78124 3 10.3365 3 10.921V19C3 20.1046 3.89543 21 5 21H19C20.1046 21 21 20.1046 21 19V10.921C21 10.3365 20.7443 9.78124 20.3002 9.40126L13.3002 3.41236C12.5517 2.77197 11.4483 2.77197 10.6998 3.41236L3.69981 9.40126Z" fill="#222222"/>
</svg>
