<svg width="24" height="24" viewBox="0 0 24 24" fill="none" xmlns="http://www.w3.org/2000/svg">
<path d="M21 15.3333C21 15.8343 20.801 16.3147 20.4468 16.669C20.0925 17.0232 19.6121 17.2222 19.1111 17.2222H7.77778L4 21V5.88889C4 5.38792 4.19901 4.90748 4.55324 4.55324C4.90748 4.19901 5.38792 4 5.88889 4H19.1111C19.6121 4 20.0925 4.19901 20.4468 4.55324C20.801 4.90748 21 5.38792 21 5.88889V15.3333Z" stroke="#222222" stroke-linecap="round" stroke-linejoin="round"/>
<path d="M8.75 11.5C9.16421 11.5 9.5 11.1642 9.5 10.75C9.5 10.3358 9.16421 10 8.75 10C8.33579 10 8 10.3358 8 10.75C8 11.1642 8.33579 11.5 8.75 11.5Z" fill="#222222"/>
<path d="M12.75 11.5C13.1642 11.5 13.5 11.1642 13.5 10.75C13.5 10.3358 13.1642 10 12.75 10C12.3358 10 12 10.3358 12 10.75C12 11.1642 12.3358 11.5 12.75 11.5Z" fill="#222222"/>
<path d="M16.75 11.5C17.1642 11.5 17.5 11.1642 17.5 10.75C17.5 10.3358 17.1642 10 16.75 10C16.3358 10 16 10.3358 16 10.75C16 11.1642 16.3358 11.5 16.75 11.5Z" fill="#222222"/>
</svg>
