<svg width="24" height="24" viewBox="0 0 24 24" fill="none" xmlns="http://www.w3.org/2000/svg">
<path d="M19 20.35H5C4.25442 20.35 3.65 19.7456 3.65 19V8.16667C3.65 7.87457 3.74474 7.59035 3.92 7.35667L6.295 4.19C6.54995 3.85006 6.95008 3.65 7.375 3.65H16.625C17.0499 3.65 17.45 3.85006 17.705 4.19L20.08 7.35667C20.2553 7.59035 20.35 7.87457 20.35 8.16667V19C20.35 19.7456 19.7456 20.35 19 20.35Z" stroke="#F93A5C" stroke-width="1.3" stroke-linecap="round" stroke-linejoin="round"/>
<path d="M3.6499 13.5V10C3.6499 8.89543 4.54533 8 5.6499 8H15.3439" stroke="#F93A5C" stroke-width="1.3" stroke-linecap="round" stroke-linejoin="round"/>
<path d="M8.5 13.5H15.5M15.5 13.5L13.5 11.5M15.5 13.5L13.5 15.5" stroke="#F93A5C" stroke-width="1.3" stroke-linecap="round" stroke-linejoin="round"/>
</svg>
