<svg width="24" height="24" viewBox="0 0 24 24" fill="none" xmlns="http://www.w3.org/2000/svg">
<path fill-rule="evenodd" clip-rule="evenodd" d="M5 20H19C19.5523 20 20 19.5523 20 19V8.16667C20 7.9503 19.9298 7.73976 19.8 7.56667L17.425 4.4C17.2361 4.14819 16.9398 4 16.625 4H7.375C7.06024 4 6.76385 4.14819 6.575 4.4L4.2 7.56667C4.10636 7.69152 4.04375 7.83585 4.01612 7.98781C4.43116 7.68123 4.94441 7.5 5.5 7.5H15C15.2761 7.5 15.5 7.72386 15.5 8C15.5 8.27614 15.2761 8.5 15 8.5H5.5C4.67157 8.5 4 9.17157 4 10V13.5V19C4 19.5523 4.44772 20 5 20ZM3 8.16667V10V13.5V19C3 20.1046 3.89543 21 5 21H19C20.1046 21 21 20.1046 21 19V8.16667C21 7.73393 20.8596 7.31286 20.6 6.96667L18.225 3.8C17.8473 3.29639 17.2545 3 16.625 3H7.375C6.74549 3 6.15271 3.29639 5.775 3.8L3.4 6.96667C3.14036 7.31286 3 7.73393 3 8.16667ZM13.8536 11.1464C13.6583 10.9512 13.3417 10.9512 13.1464 11.1464C12.9512 11.3417 12.9512 11.6583 13.1464 11.8536L14.2929 13H8.5C8.22386 13 8 13.2239 8 13.5C8 13.7761 8.22386 14 8.5 14H14.2929L13.1464 15.1464C12.9512 15.3417 12.9512 15.6583 13.1464 15.8536C13.3417 16.0488 13.6583 16.0488 13.8536 15.8536L15.8536 13.8536C16.0488 13.6583 16.0488 13.3417 15.8536 13.1464L13.8536 11.1464Z" fill="#222222"/>
</svg>
