<svg width="24" height="24" viewBox="0 0 24 24" fill="none" xmlns="http://www.w3.org/2000/svg">
<g clip-path="url(#clip0)">
<path fill-rule="evenodd" clip-rule="evenodd" d="M12.7071 6.37869C12.3166 6.76922 11.6834 6.76922 11.2929 6.37869L10.2912 5.37705C8.54693 3.63275 5.69807 3.70263 4.04139 5.53035C2.52864 7.19928 2.55367 9.75089 4.09887 11.3898L11.9547 19.7222C11.9793 19.7482 12.0207 19.7482 12.0453 19.7222L19.9011 11.3898C21.4463 9.75087 21.4713 7.19928 19.9586 5.53036C18.3019 3.70263 15.453 3.63275 13.7087 5.37705L12.7071 6.37869ZM13.0016 4.66994C15.1501 2.5215 18.659 2.60758 20.6995 4.85877C22.5627 6.91437 22.5319 10.0571 20.6287 12.0758L12.7729 20.4082C12.3536 20.8529 11.6464 20.8529 11.2271 20.4082L3.37127 12.0758C1.46806 10.0572 1.43723 6.91436 3.30046 4.85876C5.34098 2.60757 8.8499 2.5215 10.9983 4.66994L12 5.67158L13.0016 4.66994Z" fill="#222222"/>
</g>
<defs>
<clipPath id="clip0">
<rect width="24" height="24" fill="white"/>
</clipPath>
</defs>
</svg>
