<svg width="24" height="24" viewBox="0 0 24 24" fill="none" xmlns="http://www.w3.org/2000/svg">
<rect x="1.5" y="4.5" width="21" height="15" rx="3.5" fill="white" stroke="#CCCCCC"/>
<path fill-rule="evenodd" clip-rule="evenodd" d="M10.9885 15.732L11.1316 14.8513L10.8128 14.8441H9.29028L10.3483 8.34451C10.3516 8.32483 10.3623 8.30656 10.3779 8.29356C10.3935 8.28057 10.4134 8.27344 10.4343 8.27344H13.0014C13.8537 8.27344 14.4418 8.44522 14.7489 8.78434C14.8928 8.94342 14.9845 9.10971 15.0289 9.29264C15.0754 9.48463 15.0762 9.71397 15.0308 9.99374L15.0275 10.0141V10.1934L15.1715 10.2724C15.2927 10.3347 15.3891 10.406 15.463 10.4876C15.5861 10.6237 15.6657 10.7966 15.6994 11.0015C15.7342 11.2123 15.7227 11.4632 15.6657 11.7472C15.6 12.0738 15.4939 12.3583 15.3504 12.5911C15.2186 12.8056 15.0505 12.9835 14.851 13.1214C14.6605 13.2524 14.4342 13.3518 14.1783 13.4155C13.9303 13.478 13.6476 13.5096 13.3375 13.5096H13.1377C12.9949 13.5096 12.8561 13.5594 12.7472 13.6488C12.638 13.74 12.5657 13.8646 12.5436 14.0009L12.5285 14.0802L12.2756 15.6327L12.2642 15.6896C12.2611 15.7077 12.2559 15.7167 12.2482 15.7228C12.2414 15.7283 12.2316 15.732 12.222 15.732H10.9885" fill="#28356A"/>
<path fill-rule="evenodd" clip-rule="evenodd" d="M15.308 10.0312C15.3004 10.0787 15.2916 10.1272 15.2818 10.177C14.9433 11.861 13.785 12.4428 12.3058 12.4428H11.5526C11.3717 12.4428 11.2192 12.57 11.1911 12.7429L10.6962 15.7839C10.6779 15.8974 10.7682 15.9997 10.8864 15.9997H12.2223C12.3804 15.9997 12.5148 15.8884 12.5397 15.7372L12.5529 15.6715L12.8044 14.1251L12.8205 14.0403C12.8452 13.8887 12.9798 13.7773 13.138 13.7773H13.3378C14.632 13.7773 15.6452 13.2682 15.9414 11.795C16.065 11.1796 16.001 10.6657 15.6737 10.3043C15.5746 10.1954 15.4518 10.1049 15.308 10.0312" fill="#298FC2"/>
<path fill-rule="evenodd" clip-rule="evenodd" d="M14.9535 9.89506C14.9018 9.88043 14.8484 9.86721 14.7937 9.85525C14.7387 9.84359 14.6823 9.83327 14.6243 9.82421C14.4212 9.79242 14.1987 9.77734 13.9603 9.77734H11.9482C11.8986 9.77734 11.8516 9.78819 11.8095 9.80779C11.7166 9.85102 11.6477 9.93613 11.631 10.0403L11.2029 12.6669L11.1907 12.7435C11.2188 12.5706 11.3713 12.4434 11.5522 12.4434H12.3054C13.7846 12.4434 14.9429 11.8613 15.2814 10.1777C15.2915 10.1278 15.3 10.0793 15.3076 10.0319C15.222 9.98782 15.1292 9.95017 15.0294 9.91808C15.0047 9.91014 14.9792 9.90249 14.9535 9.89506" fill="#22284F"/>
<path fill-rule="evenodd" clip-rule="evenodd" d="M11.6312 10.0414C11.6479 9.93717 11.7168 9.85206 11.8097 9.80913C11.852 9.78945 11.8988 9.77861 11.9484 9.77861H13.9605C14.1988 9.77861 14.4214 9.79376 14.6245 9.82555C14.6825 9.83453 14.7388 9.84493 14.7939 9.85659C14.8486 9.86847 14.902 9.88177 14.9537 9.89632C14.9794 9.90375 15.0048 9.91148 15.0298 9.91912C15.1297 9.95121 15.2225 9.98916 15.3081 10.0329C15.4088 9.4106 15.3073 8.98689 14.96 8.60322C14.5771 8.18077 13.8861 8 13.0018 8H10.4346C10.254 8 10.0999 8.12722 10.072 8.30042L9.00274 14.8668C8.98165 14.9967 9.08507 15.1139 9.2203 15.1139H10.8052L11.6312 10.0414" fill="#28356A"/>
</svg>
