<svg width="30" height="19" viewBox="0 0 30 19" fill="none" xmlns="http://www.w3.org/2000/svg">
<rect width="30" height="19" rx="3" fill="#306FC8"/>
<mask id="mask0_7959_24462" style="mask-type:alpha" maskUnits="userSpaceOnUse" x="0" y="0" width="30" height="19">
<rect width="30" height="19" rx="3" fill="url(#paint0_linear_7959_24462)"/>
</mask>
<g mask="url(#mask0_7959_24462)">
<path d="M12.9836 13.9144V11.1484L11.6914 12.5106L12.9836 13.9144Z" fill="white"/>
<path d="M7.56836 11.4961V12.1187L9.41602 12.1149V12.8281H7.56836V13.5111H9.63975L10.6041 12.4998L9.67832 11.4961H7.56836Z" fill="white"/>
<path d="M15.4182 6.25277C15.5262 6.1924 15.5918 6.07165 15.5918 5.92448C15.5918 5.77732 15.5224 5.67166 15.4182 5.61506C15.3179 5.55846 15.1675 5.55469 15.0171 5.55469H13.9756V6.32447H15.0055C15.1675 6.32447 15.3025 6.31692 15.4182 6.25277Z" fill="white"/>
<path d="M1.55078 6.79931H2.70412L2.12552 5.42578L1.55078 6.79931Z" fill="white"/>
<path d="M14.9275 11.4961H13.8281V12.364H14.9197C15.2399 12.364 15.4405 12.213 15.4405 11.9149C15.4366 11.6168 15.2283 11.4961 14.9275 11.4961Z" fill="white"/>
<path d="M1.76666 8.1976H2.49184L2.81971 8.97115H5.65485V8.3825L5.90943 8.97115H7.37522L7.6298 8.37495V8.97115H14.6733V7.71083H14.8122C14.9124 7.71083 14.9394 7.72215 14.9394 7.87686V8.97115H18.5808V8.67305C18.8701 8.82776 19.3252 8.97115 19.9347 8.97115H21.4661L21.7978 8.1976H22.523L22.8508 8.97115H25.794V8.23911L26.2453 8.97115H28.6098V4.15625H26.2723V4.72227L25.9367 4.15625H23.5336V4.72227L23.2404 4.15625H19.9926C19.4448 4.15625 18.9626 4.22795 18.5808 4.43171V4.15625H16.3435V4.43171C16.0812 4.22417 15.7533 4.15625 15.383 4.15625H7.19392L6.63847 5.39771L6.08301 4.15625H3.50631V4.72227L3.21316 4.15625H1.01448L0 6.43918V8.97115H1.43878L1.76666 8.1976ZM18.7389 5.23923C19.0089 4.96377 19.441 4.83547 20.0234 4.83547H20.8296V5.57506H20.0388C19.7264 5.57506 19.5528 5.62034 19.387 5.7826C19.2404 5.92599 19.1401 6.20145 19.1401 6.5637C19.1401 6.9335 19.2134 7.19387 19.3792 7.37499C19.5027 7.51083 19.738 7.55234 19.9655 7.55234H20.3436L21.5316 4.83547H22.7891L24.2202 8.10326V4.83547H25.5085L26.9898 7.23915V4.83547H27.8577V8.29194H26.6542L25.0611 5.70336V8.29194H23.3446L23.0206 7.51838H21.2655L20.9415 8.29194H19.9617C19.549 8.29194 19.0282 8.1976 18.7351 7.90705C18.438 7.61272 18.2876 7.21651 18.2876 6.59012C18.2876 6.07693 18.3802 5.60902 18.7389 5.23923ZM17.0108 4.83547H17.8749V8.29194H17.0108V4.83547ZM13.1342 4.83547H15.0783C15.5065 4.83547 15.8228 4.85056 16.0928 5.0015C16.3628 5.15621 16.5287 5.38262 16.5287 5.76751C16.5287 6.31466 16.1507 6.59766 15.9269 6.68445C16.1121 6.75237 16.2702 6.8769 16.3435 6.97878C16.4631 7.14481 16.4824 7.3033 16.4824 7.60517V8.29194H15.6338V7.85422C15.6338 7.65045 15.6531 7.34858 15.4949 7.18632C15.3753 7.0618 15.1902 7.03538 14.8816 7.03538H13.9751V8.29194H13.1304V4.83547H13.1342ZM9.73205 4.83547H12.5479V5.55619H10.5729V6.17881H12.4978V6.88822H10.5729V7.57121L12.5479 7.56744V8.28816H9.73205V4.83547ZM0.92576 8.29194H0.00771466L1.51593 4.83547H2.77342L4.20449 8.10326V4.83547H5.58542L6.68476 7.17877L7.69923 4.83547H9.1033V8.29194H8.23926V5.58638L7.01649 8.29194H6.27588L5.04925 5.58261V8.29194H3.32888L3.00486 7.51838H1.24978L0.92576 8.29194Z" fill="white"/>
<path d="M22.1411 5.42578L21.5664 6.79931H22.7159L22.1411 5.42578Z" fill="white"/>
<path d="M28.1312 11.576C28.0425 11.6326 28.0039 11.7156 28.0039 11.825C28.0039 11.9533 28.0811 12.0439 28.1891 12.0816C28.2739 12.1118 28.3704 12.1194 28.5131 12.1194L28.9644 12.1307C29.4311 12.142 29.7397 12.2175 29.9287 12.4099C29.9557 12.4363 29.9789 12.4628 29.9981 12.4892V11.5156H28.4668C28.3163 11.5156 28.2122 11.5232 28.1312 11.576Z" fill="white"/>
<path d="M28.861 14.2257H27.2332V13.4861H28.8533C29.0115 13.4861 29.1233 13.4634 29.1928 13.4031C29.2506 13.3502 29.2931 13.2748 29.2931 13.1766C29.2931 13.0748 29.2506 12.9955 29.1889 12.9465C29.1272 12.8936 29.0385 12.871 28.8958 12.871C28.1089 12.8484 27.1175 12.8974 27.1175 11.7993C27.1175 11.305 27.4377 10.773 28.3249 10.773H30.0028V10.0938H28.4406C27.9739 10.0938 27.6228 10.1994 27.3837 10.3692V10.0938H25.0809C24.7144 10.0938 24.2747 10.1805 24.0702 10.3692V10.0938H19.9467V10.3692C19.6189 10.1428 19.0673 10.0938 18.805 10.0938H16.0856V10.3692C15.8271 10.1239 15.2562 10.0938 14.9052 10.0938H11.8579L11.1597 10.8333L10.5117 10.0938H5.96777V14.9087H10.4307L11.1443 14.1577L11.8232 14.9049L14.5696 14.9087V13.7728H14.8435C15.2061 13.7728 15.6381 13.7653 16.0123 13.6068V14.9087H18.2881V13.6483H18.4C18.5388 13.6483 18.5504 13.6596 18.5504 13.7879V14.9087H25.4357C25.8678 14.9087 26.3345 14.7992 26.5891 14.603V14.9087H28.7723C29.2236 14.9087 29.6711 14.8445 30.0105 14.686V13.7917C29.7907 14.086 29.4049 14.2257 28.861 14.2257ZM14.8744 13.071H13.8252V14.2257H12.1819L11.1482 13.0899L10.0681 14.2294H6.72381V10.773H10.1183L11.152 11.9088L12.2282 10.773H14.9284C15.5918 10.773 16.344 10.9616 16.344 11.9163C16.3401 12.871 15.6111 13.071 14.8744 13.071ZM19.9506 12.9163C20.0702 13.0823 20.0895 13.2408 20.0933 13.5427V14.2257H19.2447V13.7879C19.2447 13.5842 19.264 13.2823 19.1058 13.12C18.9824 12.9955 18.8011 12.9691 18.4925 12.9691H17.5861V14.2257H16.7413V10.7692H18.6854C19.1136 10.7692 19.426 10.7843 19.6999 10.939C19.9699 11.0937 20.1358 11.3201 20.1358 11.705C20.1358 12.2522 19.7577 12.5352 19.5379 12.622C19.723 12.6899 19.8812 12.8144 19.9506 12.9163ZM23.4183 11.4937H21.4472V12.1163H23.3759V12.8295H21.4472V13.5125H23.4222V14.2294H20.6063V10.773H23.4222V11.4937H23.4183ZM25.563 14.2257H23.9198V13.4861H25.5553C25.7135 13.4861 25.8253 13.4634 25.8948 13.4031C25.9526 13.3502 25.995 13.2748 25.995 13.1766C25.995 13.0748 25.9526 12.9955 25.8909 12.9465C25.8292 12.8936 25.7405 12.871 25.5977 12.871C24.8108 12.8484 23.8195 12.8974 23.8195 11.7993C23.8195 11.3012 24.1397 10.773 25.0269 10.773H26.7164V11.5126H25.1696C25.0153 11.5126 24.915 11.5163 24.8301 11.5692C24.7414 11.6258 24.7067 11.7088 24.7067 11.8182C24.7067 11.9465 24.7838 12.0371 24.8918 12.0748C24.9806 12.105 25.0731 12.1125 25.2159 12.1125L25.6672 12.1239C26.1339 12.1352 26.4425 12.2106 26.6315 12.4031C26.7974 12.5767 26.8861 12.7767 26.8861 13.1351C26.8899 13.8747 26.4193 14.2257 25.563 14.2257Z" fill="white"/>
<path d="M19.0286 11.5527C18.9283 11.4999 18.774 11.4961 18.6274 11.4961H17.5859V12.2659H18.6158C18.7779 12.2659 18.9167 12.2621 19.0286 12.198C19.1366 12.1376 19.2022 12.0168 19.2022 11.8697C19.1983 11.7187 19.1327 11.6131 19.0286 11.5527Z" fill="white"/>
</g>
<defs>
<linearGradient id="paint0_linear_7959_24462" x1="15" y1="0" x2="15" y2="19" gradientUnits="userSpaceOnUse">
<stop stop-color="#1B8ABA"/>
<stop offset="1" stop-color="#005D9C"/>
</linearGradient>
</defs>
</svg>
