<svg width="30" height="19" viewBox="0 0 30 19" fill="none" xmlns="http://www.w3.org/2000/svg">
<path d="M0 3C0 1.34315 1.34315 0 3 0H27C28.6569 0 30 1.34315 30 3V16C30 17.6569 28.6569 19 27 19H3C1.34315 19 0 17.6569 0 16V3Z" fill="#CCECFF"/>
<path d="M16.4098 15.4653C19.8762 15.4812 23.0405 12.8063 23.0405 9.55204C23.0405 5.9937 19.8762 3.53414 16.4098 3.53516H13.4266C9.91868 3.53414 7.03125 5.99429 7.03125 9.55204C7.03125 12.807 9.91868 15.4812 13.4266 15.4653H16.4098Z" fill="#016AAB"/>
<path d="M14.757 12.7198V6.25812C16.1378 6.75636 17.118 8.01383 17.1203 9.48872C17.118 10.9639 16.1378 12.2206 14.757 12.7198ZM9.76159 9.48872C9.76469 8.0147 10.7433 6.75796 12.1233 6.25826V12.7184C10.7433 12.2192 9.76469 10.9632 9.76159 9.48872ZM13.4404 4.02734C10.235 4.02836 7.63749 6.47248 7.63672 9.48872C7.63749 12.5047 10.235 14.9483 13.4404 14.9492C16.6469 14.9483 19.2448 12.5047 19.2453 9.48872C19.2448 6.47248 16.6469 4.02836 13.4404 4.02734Z" fill="white"/>
</svg>
