<svg width="30" height="19" viewBox="0 0 30 19" fill="none" xmlns="http://www.w3.org/2000/svg">
<g clip-path="url(#clip0_7959_24465)">
<path d="M0 3C0 1.34315 1.34315 0 3 0H27C28.6569 0 30 1.34315 30 3V16C30 17.6569 28.6569 19 27 19H3C1.34315 19 0 17.6569 0 16V3Z" fill="#FFEFE5"/>
<path d="M17.5767 9.53881C17.5787 9.08296 17.3974 8.62645 17.0325 8.28243C16.6668 7.93771 16.1813 7.76693 15.6967 7.76967C15.6944 7.76967 15.6921 7.76953 15.6897 7.76953C14.6374 7.76953 13.8027 8.55615 13.8027 9.54837C13.8027 10.5308 14.6477 11.3271 15.6897 11.3271C16.7423 11.3271 17.5769 10.5403 17.5769 9.54837C17.5769 9.5451 17.5767 9.54203 17.5767 9.53881Z" fill="#F26E21"/>
<path d="M13.452 10.2999C13.17 10.5661 12.9096 10.6701 12.6293 10.6757C11.9462 10.6699 11.444 10.1931 11.444 9.51321C11.444 9.17099 11.5814 8.89051 11.7992 8.6509C12.0034 8.46815 12.2665 8.35007 12.569 8.35007C12.8955 8.35007 13.1497 8.45268 13.4398 8.72635V7.93959C13.1497 7.80283 12.8955 7.73438 12.569 7.73438C12.1077 7.76546 11.6727 7.94115 11.3391 8.21705C11.2429 8.2986 11.1508 8.38863 11.0726 8.49166C10.8289 8.78941 10.6816 9.15401 10.6816 9.54755C10.6816 10.5394 11.5166 11.292 12.5689 11.292C12.574 11.292 12.5791 11.2916 12.5841 11.2915C12.5912 11.2916 12.5981 11.292 12.6052 11.292C12.8954 11.292 13.1497 11.2237 13.4762 11.0869L13.452 10.2999C13.4398 10.3115 13.4641 10.3222 13.452 10.3331V10.2999Z" fill="#2B2B2B"/>
<path d="M19.959 8.22434L19.1372 10.129L18.1936 7.87109H17.4316L18.9194 11.3262H19.3186L20.8791 7.87109H20.1171L19.959 8.22434Z" fill="#2B2B2B"/>
<path d="M21.1699 9.37631V11.2237H23.1297H23.1658V10.6762H22.5489H21.8957V10.0606V9.75278H23.1297V9.17104H21.8957V8.45273H23.1658V7.87109H21.1699V9.37631Z" fill="#2B2B2B"/>
<path d="M4.76631 7.87109H3.75V11.2237H4.76626C5.31053 11.2237 5.70965 11.0867 6.03626 10.8473C6.43539 10.5394 6.68953 10.0606 6.68953 9.54756C6.68958 8.55525 5.92736 7.87109 4.76631 7.87109ZM5.6009 10.4027C5.38315 10.5736 5.09282 10.6762 4.65731 10.6762H4.43955V8.45269H4.62097C5.05649 8.45269 5.34681 8.52109 5.56462 8.72626C5.81861 8.93138 5.96385 9.23945 5.96385 9.54742C6.00013 9.85529 5.85499 10.1972 5.6009 10.4027Z" fill="#2B2B2B"/>
<path d="M7.7061 7.87109H7.0166V11.2236H7.7061V7.87109Z" fill="#2B2B2B"/>
<path d="M9.44782 9.1699C9.01241 9.03309 8.9034 8.93038 8.9034 8.75942C8.9034 8.55415 9.12116 8.38314 9.41148 8.38314C9.62924 8.38314 9.81066 8.45159 9.99213 8.65686L10.3551 8.21217C10.0647 7.97261 9.70196 7.83594 9.30273 7.83594C8.68565 7.83594 8.17757 8.24647 8.17757 8.79362C8.17757 9.27265 8.39552 9.47787 9.04864 9.71734C9.33897 9.8198 9.44787 9.85415 9.52059 9.92255C9.66547 9.99086 9.73819 10.1278 9.73819 10.2645C9.73819 10.5382 9.52059 10.7435 9.19378 10.7435C8.86687 10.7435 8.57679 10.5725 8.43161 10.2988L7.99609 10.7093C8.32285 11.154 8.72203 11.3592 9.23011 11.3592C9.95585 11.3592 10.4637 10.9145 10.4637 10.2645C10.4638 9.68309 10.2462 9.44362 9.44782 9.1699Z" fill="#2B2B2B"/>
<path d="M25.1247 9.82094C25.6689 9.71848 25.9593 9.37626 25.9593 8.86326C25.9593 8.24761 25.4875 7.87109 24.6892 7.87109H23.6367V11.2237H24.3262V9.8894H24.4352L25.4148 11.2237H26.2496L25.1247 9.82094ZM24.5439 9.41041H24.3263V8.38428H24.5439C24.9794 8.38428 25.2335 8.55525 25.2335 8.89756C25.2335 9.23949 24.9794 9.41041 24.5439 9.41041Z" fill="#2B2B2B"/>
</g>
<defs>
<clipPath id="clip0_7959_24465">
<path d="M0 3C0 1.34315 1.34315 0 3 0H27C28.6569 0 30 1.34315 30 3V16C30 17.6569 28.6569 19 27 19H3C1.34315 19 0 17.6569 0 16V3Z" fill="white"/>
</clipPath>
</defs>
</svg>
