<svg width="30" height="19" viewBox="0 0 30 19" fill="none" xmlns="http://www.w3.org/2000/svg">
<path d="M0 3C0 1.34315 1.34315 0 3 0H27C28.6569 0 30 1.34315 30 3V16C30 17.6569 28.6569 19 27 19H3C1.34315 19 0 17.6569 0 16V3Z" fill="#EEEEEE"/>
<path d="M19.2888 9.7414C19.7466 9.75078 20.2071 9.72234 20.6631 9.75617C21.1249 9.83738 21.2362 10.4964 20.8259 10.7122C20.546 10.8544 20.2134 10.7652 19.9099 10.7903H19.2888V9.7414ZM20.9278 8.55422C21.0295 8.89267 20.6834 9.19654 20.3376 9.14993H19.2888C19.2962 8.83077 19.2744 8.48435 19.2994 8.18199C19.7196 8.19314 20.1436 8.15924 20.5614 8.19971C20.7409 8.24222 20.8911 8.38131 20.9278 8.55422ZM23.4519 3.53518C23.4715 4.18152 23.4548 4.86203 23.4604 5.52149C23.4591 8.20259 23.4631 10.8836 23.4581 13.5649C23.4397 14.5697 22.495 15.4428 21.4364 15.4628C20.3768 15.4669 19.3171 15.4635 18.2573 15.4646V11.4113C19.412 11.4057 20.5672 11.4227 21.7214 11.4028C22.2568 11.3711 22.8433 11.0381 22.8682 10.4827C22.9312 9.92487 22.3733 9.53905 21.8436 9.47811C21.64 9.47312 21.646 9.42216 21.8436 9.39993C22.3488 9.297 22.7456 8.8041 22.5969 8.31047C22.4703 7.79128 21.8615 7.59034 21.3551 7.59133C20.3227 7.58472 19.29 7.59041 18.2576 7.58849C18.2642 6.83179 18.2436 6.07428 18.2686 5.31814C18.3505 4.33147 19.3189 3.51778 20.3626 3.53544C21.3925 3.53529 22.4223 3.53529 23.4519 3.53525V3.53518Z" fill="url(#paint0_linear_7959_24467)"/>
<path d="M6.58996 5.42051C6.61633 4.4173 7.56506 3.55136 8.62227 3.53669C9.67796 3.53363 10.7338 3.53625 11.7895 3.53536C11.7866 6.89192 11.7952 10.2488 11.7851 13.6052C11.7445 14.5962 10.8061 15.4457 9.7604 15.4632C8.70271 15.4668 7.64491 15.4637 6.58718 15.4647V11.2748C7.61458 11.5036 8.69197 11.601 9.7401 11.4492C10.3666 11.3542 11.0521 11.0642 11.2642 10.4515C11.4203 9.92739 11.3324 9.37581 11.3557 8.8379V7.58867H9.54177C9.53363 8.41488 9.55847 9.24252 9.52865 10.0677C9.47975 10.5749 8.94688 10.8972 8.43939 10.88C7.81001 10.8863 6.56281 10.45 6.56281 10.45C6.55968 8.90208 6.58107 6.96349 6.58996 5.42066V5.42051Z" fill="url(#paint1_linear_7959_24467)"/>
<path d="M12.4656 8.09274C12.3701 8.11183 12.4464 7.78617 12.422 7.66263C12.4285 6.88152 12.4084 6.09956 12.4331 5.31901C12.5147 4.32816 13.4906 3.51245 14.5385 3.53564H17.6246C17.6217 6.89219 17.6302 10.2491 17.6202 13.6055C17.5795 14.5965 16.6411 15.4459 15.5953 15.4635C14.5376 15.4673 13.4798 15.4641 12.422 15.465V10.8744C13.1444 11.4332 14.1263 11.5201 15.0263 11.5216C15.7048 11.5214 16.3793 11.4228 17.0383 11.2753V10.4343C16.2957 10.7832 15.4228 11.0047 14.5996 10.8043C14.0254 10.6696 13.6086 10.1465 13.6179 9.58789C13.5513 9.00699 13.9126 8.3937 14.5182 8.221C15.2701 7.99912 16.0895 8.16882 16.7943 8.45729C16.9453 8.53182 17.0986 8.62426 17.0382 8.38635V7.7253C15.8595 7.46094 14.605 7.36367 13.4208 7.65125C13.078 7.7424 12.7441 7.88064 12.4656 8.09281V8.09274Z" fill="url(#paint2_linear_7959_24467)"/>
<defs>
<linearGradient id="paint0_linear_7959_24467" x1="18.2218" y1="9.24482" x2="23.4275" y2="9.24482" gradientUnits="userSpaceOnUse">
<stop stop-color="#58B03A"/>
<stop offset="1" stop-color="#55B330"/>
</linearGradient>
<linearGradient id="paint1_linear_7959_24467" x1="6.47649" y1="9.61428" x2="11.7042" y2="9.61428" gradientUnits="userSpaceOnUse">
<stop stop-color="#0F6EB6"/>
<stop offset="1" stop-color="#006DBA"/>
</linearGradient>
<linearGradient id="paint2_linear_7959_24467" x1="12.4143" y1="9.36084" x2="17.6236" y2="9.36084" gradientUnits="userSpaceOnUse">
<stop stop-color="#DE0D3D"/>
<stop offset="1" stop-color="#E30138"/>
</linearGradient>
</defs>
</svg>
