<svg width="30" height="19" viewBox="0 0 30 19" fill="none" xmlns="http://www.w3.org/2000/svg">
<path d="M0 3C0 1.34315 1.34315 0 3 0H27C28.6569 0 30 1.34315 30 3V16C30 17.6569 28.6569 19 27 19H3C1.34315 19 0 17.6569 0 16V3Z" fill="#01326F"/>
<path d="M17.6927 4.8125H12.1562V14.1916H17.6927V4.8125Z" fill="#FF5F00"/>
<path d="M12.5079 9.50041C12.5069 8.59701 12.724 7.70524 13.1427 6.89261C13.5614 6.07999 14.1707 5.36783 14.9246 4.81006C13.9912 4.11855 12.8702 3.68854 11.6898 3.56918C10.5093 3.44982 9.31707 3.64592 8.24927 4.13507C7.18147 4.62422 6.2812 5.38668 5.65135 6.33531C5.02151 7.28394 4.6875 8.38048 4.6875 9.49958C4.6875 10.6187 5.02151 11.7152 5.65135 12.6639C6.2812 13.6125 7.18147 14.375 8.24927 14.8641C9.31707 15.3532 10.5093 15.5493 11.6898 15.43C12.8702 15.3106 13.9912 14.8806 14.9246 14.1891C14.171 13.6315 13.5617 12.9196 13.1431 12.1073C12.7244 11.295 12.5072 10.4035 12.5079 9.50041Z" fill="#EB001B"/>
<path d="M25.1629 9.5011C25.1628 10.6203 24.8288 11.7169 24.1988 12.6656C23.5689 13.6142 22.6684 14.3767 21.6005 14.8658C20.5326 15.3548 19.3402 15.5508 18.1597 15.4313C16.9792 15.3117 15.8582 14.8815 14.9248 14.1898C15.6782 13.6317 16.2872 12.9196 16.706 12.1072C17.1248 11.2949 17.3424 10.4035 17.3424 9.50027C17.3424 8.59707 17.1248 7.70566 16.706 6.8933C16.2872 6.08094 15.6782 5.36884 14.9248 4.81074C15.8582 4.11902 16.9792 3.68881 18.1597 3.56927C19.3402 3.44974 20.5326 3.64572 21.6005 4.13479C22.6684 4.62387 23.5689 5.38632 24.1988 6.33499C24.8288 7.28365 25.1628 8.38025 25.1629 9.49944V9.5011Z" fill="#F79E1B"/>
</svg>
