<svg width="30" height="19" viewBox="0 0 30 19" fill="none" xmlns="http://www.w3.org/2000/svg">
<g clip-path="url(#clip0_7959_24468)">
<path d="M0 3C0 1.34315 1.34315 0 3 0H27C28.6569 0 30 1.34315 30 3V16C30 17.6569 28.6569 19 27 19H3C1.34315 19 0 17.6569 0 16V3Z" fill="#F7F7F7"/>
<path d="M2.22588 0H14.6217C16.352 0 17.4282 1.03311 17.0246 2.3048L11.2534 20.4546C10.8462 21.7218 9.11371 22.7558 7.38216 22.7558H-5.01242C-6.74035 22.7558 -7.81898 21.7218 -7.41532 20.4546L-1.64178 2.3048C-1.23812 1.03311 0.493426 0 2.22588 0Z" fill="#E21836"/>
<path d="M13.7739 0H25.3749C26.7829 0 26.148 1.03311 25.8168 2.3048L21.1208 20.4546C20.7913 21.7218 20.8941 22.7558 19.4832 22.7558H7.88222C6.47131 22.7558 5.59816 21.7218 5.92962 20.4546L10.6253 2.3048C10.9588 1.03311 12.365 0 13.7739 0Z" fill="#00447C"/>
<path d="M24.34 0H33.9339C35.275 0 36.108 1.02897 35.793 2.29557L31.327 20.3727C31.0118 21.6348 29.67 22.6647 28.3291 22.6647H18.7396C17.3978 22.6647 16.5655 21.6348 16.8798 20.3727L21.3465 2.29557C21.6589 1.02897 22.9982 0 24.34 0Z" fill="#007B84"/>
<path d="M7.87319 5.10506C7.16133 5.1119 6.9511 5.10506 6.88394 5.09011C6.85813 5.20574 6.37776 7.29452 6.37641 7.29627C6.27298 7.71887 6.19773 8.0201 5.94211 8.21462C5.797 8.3277 5.6276 8.38226 5.4312 8.38226C5.11551 8.38226 4.9316 8.2345 4.90072 7.95426L4.89482 7.85803C4.89482 7.85803 4.99099 7.29198 4.99099 7.2888C4.99099 7.2888 5.49515 5.3853 5.58542 5.13369C5.59014 5.11938 5.59149 5.1119 5.59267 5.10506C4.61135 5.11317 4.4374 5.10506 4.42542 5.09011C4.41884 5.11063 4.39454 5.22864 4.39454 5.22864L3.87975 7.37405L3.83554 7.556L3.75 8.15116C3.75 8.3277 3.78678 8.4718 3.86001 8.59363C4.09454 8.97996 4.76355 9.03785 5.142 9.03785C5.62962 9.03785 6.08704 8.9402 6.39615 8.76191C6.93271 8.46305 7.07309 7.99593 7.19828 7.58081L7.25633 7.36785C7.25633 7.36785 7.77567 5.39087 7.86391 5.13369C7.86729 5.11938 7.86864 5.1119 7.87319 5.10506ZM9.64023 6.6999C9.51503 6.6999 9.28624 6.72853 9.08073 6.82349C9.00615 6.85959 8.93562 6.90126 8.86121 6.94277L8.92837 6.71422L8.89158 6.67573C8.45576 6.75891 8.35823 6.77005 7.95565 6.82349L7.92191 6.84464C7.87517 7.20997 7.83366 7.48465 7.66038 8.20275C7.59441 8.46741 7.5259 8.73461 7.45723 8.99863L7.47579 9.03219C7.88833 9.01168 8.01352 9.01168 8.37207 9.01724L8.40109 8.9875C8.44665 8.76754 8.45255 8.716 8.55345 8.27051C8.60086 8.05929 8.69974 7.59519 8.7485 7.42994C8.8381 7.39081 8.92651 7.35232 9.01087 7.35232C9.21183 7.35232 9.18736 7.51757 9.1796 7.58342C9.171 7.69396 9.09777 8.055 9.02268 8.36498L8.97257 8.56507C8.93765 8.71282 8.89934 8.85644 8.86442 9.00293L8.8796 9.03219C9.28624 9.01168 9.41025 9.01168 9.75749 9.01724L9.79832 8.9875C9.86109 8.64396 9.87948 8.55203 9.99084 8.05182L10.0469 7.82199C10.1557 7.3722 10.2104 7.14413 10.128 6.95836C10.041 6.75016 9.83207 6.6999 9.64023 6.6999ZM11.6142 7.17083C11.3981 7.20996 11.2602 7.23604 11.1232 7.2529C10.9874 7.27342 10.8549 7.29203 10.646 7.31938L10.6295 7.33354L10.6143 7.34483C10.5926 7.49147 10.5774 7.61824 10.5485 7.76726C10.5241 7.92138 10.4864 8.09649 10.4252 8.34811C10.3778 8.54072 10.3533 8.60784 10.3263 8.67559C10.3 8.74334 10.271 8.80919 10.2176 8.99862L10.2301 9.01611L10.2406 9.03218C10.4358 9.02343 10.5635 9.01723 10.6948 9.01611C10.8259 9.01166 10.9617 9.01611 11.172 9.01723L11.1904 9.00307L11.2101 8.98748C11.2405 8.81667 11.245 8.7707 11.2636 8.68736C11.282 8.59797 11.3137 8.47423 11.3915 8.14373C11.4283 7.9885 11.4693 7.83375 11.5074 7.67533C11.547 7.51756 11.5886 7.36217 11.628 7.20694L11.6221 7.18817L11.6142 7.17083ZM11.6188 6.53588C11.4224 6.42661 11.0777 6.46128 10.8457 6.61222C10.6144 6.76014 10.5881 6.97008 10.7838 7.08078C10.9768 7.18702 11.3229 7.15537 11.5528 7.00316C11.7837 6.85207 11.8125 6.64403 11.6188 6.53588ZM12.8066 9.06642C13.2039 9.06642 13.6112 8.9632 13.9178 8.65687C14.1537 8.40844 14.2618 8.03881 14.2993 7.8866C14.4213 7.3821 14.3263 7.14655 14.207 7.00308C14.0258 6.78439 13.7055 6.71425 13.3733 6.71425C13.1735 6.71425 12.6977 6.73286 12.326 7.05589C12.0591 7.28889 11.9358 7.60508 11.8614 7.90823C11.7863 8.2171 11.6999 8.77313 12.2423 8.98006C12.4097 9.04781 12.651 9.06642 12.8066 9.06642ZM12.7755 7.93129C12.8671 7.54926 12.9753 7.22861 13.2513 7.22861C13.4676 7.22861 13.4833 7.46719 13.3872 7.85049C13.3699 7.93558 13.291 8.25193 13.1842 8.38665C13.1096 8.48605 13.0214 8.54633 12.9238 8.54633C12.8948 8.54633 12.7222 8.54633 12.7195 8.30474C12.7182 8.18545 12.744 8.06362 12.7755 7.93129ZM15.2926 9.01729L15.3236 8.98755C15.3677 8.76758 15.3749 8.71589 15.4725 8.27056C15.5212 8.05934 15.6221 7.59524 15.6695 7.42999C15.7593 7.3907 15.8462 7.35221 15.9333 7.35221C16.1329 7.35221 16.1086 7.51746 16.1006 7.58331C16.0934 7.69401 16.0202 8.05489 15.9437 8.36487L15.8963 8.56496C15.86 8.71287 15.8205 8.85633 15.7856 9.00298L15.8008 9.03224C16.2088 9.01172 16.3281 9.01172 16.6773 9.01729L16.7195 8.98755C16.7808 8.64384 16.7973 8.55191 16.912 8.05186L16.9667 7.82188C17.076 7.37209 17.1314 7.14418 17.0504 6.95841C16.9608 6.75021 16.7506 6.69995 16.5614 6.69995C16.4361 6.69995 16.2061 6.72842 16.0018 6.82353C15.9287 6.85964 15.8555 6.90115 15.7836 6.94282L15.8462 6.71427L15.8126 6.67562C15.377 6.75896 15.2774 6.77009 14.8753 6.82353L14.8445 6.84469C14.7957 7.21002 14.756 7.48454 14.5828 8.2028C14.5168 8.46746 14.4483 8.73466 14.3798 8.99868L14.3982 9.03224C14.8114 9.01172 14.9347 9.01172 15.2926 9.01729ZM18.2901 9.03216C18.3158 8.91415 18.4681 8.21465 18.4695 8.21465C18.4695 8.21465 18.5992 7.7014 18.6072 7.68279C18.6072 7.68279 18.648 7.62935 18.6888 7.6082H18.7489C19.3157 7.6082 19.9556 7.6082 20.4573 7.26036C20.7986 7.02179 21.0319 6.66949 21.1361 6.24134C21.163 6.13636 21.183 6.01151 21.183 5.88666C21.183 5.72268 21.148 5.56045 21.0471 5.43369C20.7913 5.09635 20.282 5.09014 19.6939 5.0876C19.6921 5.0876 19.4041 5.09014 19.4041 5.09014C18.6514 5.09889 18.3495 5.09635 18.2255 5.08203C18.215 5.13372 18.1953 5.22565 18.1953 5.22565C18.1953 5.22565 17.9257 6.40357 17.9257 6.40547C17.9257 6.40547 17.2805 8.90985 17.2501 9.02787C17.9073 9.02039 18.1767 9.02039 18.2901 9.03216ZM18.7897 6.93972C18.7897 6.93972 19.0764 5.76419 19.075 5.76864L19.0843 5.70836L19.0884 5.6624L19.2029 5.67353C19.2029 5.67353 19.7942 5.72141 19.808 5.72268C20.0413 5.80777 20.1375 6.0271 20.0704 6.31339C20.0091 6.57502 19.8291 6.79498 19.5978 6.90123C19.4073 6.99125 19.1739 6.99873 18.9335 6.99873H18.7779L18.7897 6.93972ZM20.5746 7.95306C20.4988 8.25748 20.4118 8.81352 20.9515 9.01169C21.1236 9.08072 21.2779 9.10124 21.4346 9.09376C21.6001 9.08533 21.7535 9.00708 21.8956 8.89447C21.8827 8.94076 21.8699 8.98704 21.8571 9.03348L21.8816 9.06322C22.2698 9.0478 22.3903 9.0478 22.8109 9.05082L22.849 9.02346C22.9105 8.6831 22.9683 8.35259 23.128 7.70145C23.2057 7.38955 23.2833 7.08068 23.3632 6.77006L23.3507 6.73587C22.9164 6.81173 22.8003 6.82796 22.3825 6.88378L22.3508 6.90812C22.3466 6.93977 22.3422 6.97014 22.3381 7.00052C22.2732 6.90159 22.179 6.81714 22.0338 6.76449C21.848 6.69563 21.4117 6.78438 21.0366 7.10629C20.773 7.33612 20.6465 7.65103 20.5746 7.95306ZM21.4867 7.97167C21.5797 7.59648 21.6865 7.27902 21.9632 7.27902C22.1382 7.27902 22.2303 7.43123 22.2116 7.69079C22.1967 7.75553 22.1807 7.82376 22.1616 7.9009C22.134 8.01239 22.1039 8.12293 22.0748 8.23363C22.0451 8.30933 22.0105 8.38075 21.9725 8.4283C21.9013 8.52341 21.7319 8.58242 21.6344 8.58242C21.6067 8.58242 21.436 8.58242 21.43 8.34512C21.4287 8.22695 21.4545 8.10527 21.4867 7.97167ZM26.25 6.73283L26.2164 6.69672C25.7867 6.77879 25.7089 6.79184 25.3141 6.84209L25.285 6.86945C25.2837 6.8739 25.2825 6.88074 25.2805 6.88695L25.2791 6.88074C24.9852 7.51996 24.9938 7.38206 24.7546 7.88529C24.7532 7.86239 24.7532 7.84808 24.7519 7.82374L24.692 6.73283L24.6543 6.69672C24.2042 6.77879 24.1935 6.79184 23.7778 6.84209L23.7454 6.86945C23.7409 6.88249 23.7409 6.89681 23.7382 6.91239L23.7409 6.91796C23.7928 7.1683 23.7803 7.11248 23.8325 7.50755C23.8568 7.70143 23.8892 7.89643 23.9135 8.08792C23.9545 8.4084 23.9774 8.56618 24.0275 9.05526C23.7468 9.492 23.6803 9.65725 23.41 10.0406L23.4118 10.0444L23.2215 10.3281C23.1997 10.358 23.18 10.3785 23.1523 10.3873C23.122 10.4014 23.0825 10.404 23.0276 10.404H22.9222L22.7654 10.8954L23.3032 10.9042C23.6189 10.9029 23.8173 10.7638 23.9241 10.5767L24.2622 10.0305H24.2568L24.2924 9.99205C24.5199 9.53049 26.25 6.73283 26.25 6.73283ZM20.5746 13.1874H20.3465L21.1908 10.555H21.4709L21.5598 10.2838L21.5684 10.5854C21.5579 10.7718 21.7135 10.937 22.1221 10.9097H22.5948L22.7574 10.4028H22.5796C22.4773 10.4028 22.4299 10.3785 22.4358 10.3263L22.4272 10.0195H21.552V10.0211C21.2691 10.0266 20.4241 10.0467 20.253 10.0896C20.046 10.1399 19.8278 10.2878 19.8278 10.2878L19.9135 10.0163H19.0948L18.9243 10.555L18.0686 13.2277H17.9026L17.7398 13.7309H19.3704L19.3157 13.8987H20.1192L20.1725 13.7309H20.3979L20.5746 13.1874ZM19.9056 11.0899C19.7745 11.1241 19.5305 11.2278 19.5305 11.2278L19.7475 10.555H20.3979L20.241 11.0452C20.241 11.0452 20.0401 11.0563 19.9056 11.0899ZM19.9181 12.051C19.9181 12.051 19.7137 12.0752 19.5793 12.1038C19.4468 12.1417 19.1984 12.261 19.1984 12.261L19.4225 11.5608H20.0763L19.9181 12.051ZM19.5536 13.1936H18.9011L19.0903 12.6028H19.7407L19.5536 13.1936ZM21.1249 11.5608H22.0654L21.9302 11.9734H20.9773L20.8342 12.4245H21.668L21.0367 13.2625C20.9925 13.324 20.9528 13.3458 20.9088 13.3632C20.8646 13.3843 20.8065 13.4091 20.7394 13.4091H20.508L20.3491 13.9031H20.9541C21.2687 13.9031 21.4544 13.7683 21.5916 13.5912L22.0246 13.0327L22.1175 13.5998C22.1373 13.7061 22.2183 13.7683 22.2731 13.7924C22.3337 13.8211 22.3963 13.8702 22.4847 13.8775C22.5795 13.8813 22.648 13.8844 22.6936 13.8844H22.9909L23.1694 13.3315H23.0521C22.9848 13.3315 22.8689 13.3209 22.8491 13.301C22.8294 13.2768 22.8294 13.2396 22.8188 13.183L22.7244 12.6145H22.3382L22.5076 12.4245H23.4587L23.605 11.9734H22.7244L22.8616 11.5608H23.7395L23.9023 11.052H21.285L21.1249 11.5608ZM13.1815 13.3085L13.401 12.6201H14.3032L14.4681 12.1082H13.565L13.7029 11.6845H14.5853L14.7488 11.1887H12.5409L12.3807 11.6845H12.8824L12.7486 12.1082H12.2456L12.0789 12.6289H12.5803L12.2878 13.5396C12.2483 13.6602 12.3063 13.7061 12.3431 13.7621C12.3807 13.8167 12.4189 13.8528 12.5046 13.8733C12.593 13.8919 12.6536 13.903 12.7359 13.903H13.753L13.9342 13.3359L13.4834 13.3942C13.3963 13.3942 13.1552 13.3844 13.1815 13.3085ZM13.285 10.0132L13.0564 10.4027C13.0074 10.4878 12.9634 10.5406 12.9237 10.5649C12.8888 10.5855 12.8196 10.594 12.7194 10.594H12.6001L12.4407 11.0923H12.8369C13.0273 11.0923 13.1736 11.0265 13.2435 10.9936C13.3186 10.9557 13.3383 10.9774 13.3964 10.9246L13.5302 10.8153H14.7673L14.9314 10.2965H14.0259L14.184 10.0132H13.285ZM15.1114 13.3185C15.0903 13.2899 15.1055 13.2395 15.1377 13.1345L15.4758 12.0795H16.6787C16.854 12.0771 16.9805 12.0752 17.0629 12.0697C17.1513 12.0609 17.2475 12.0312 17.3522 11.9777C17.4604 11.9217 17.5157 11.8627 17.5625 11.795C17.6146 11.7274 17.6983 11.5795 17.7702 11.3514L18.1952 10.0163L16.947 10.0232C16.947 10.0232 16.5626 10.0766 16.3934 10.1356C16.2226 10.2015 15.9786 10.3853 15.9786 10.3853L16.0913 10.0194H15.3203L14.2407 13.3942C14.2024 13.5253 14.1768 13.6204 14.1709 13.6775C14.1689 13.739 14.2532 13.7999 14.3079 13.8459C14.3725 13.8919 14.468 13.8844 14.5596 13.8919C14.656 13.8987 14.793 13.903 14.9821 13.903H15.5747L15.7566 13.3241L15.2261 13.3713C15.1694 13.3713 15.1284 13.3427 15.1114 13.3185ZM15.694 11.367H16.9574L16.8771 11.6043C16.8658 11.6098 16.8388 11.5925 16.7102 11.6068H15.6162L15.694 11.367ZM15.9471 10.5711H17.2211L17.1295 10.8569C17.1295 10.8569 16.529 10.8513 16.4328 10.868C16.0097 10.9371 15.7625 11.1502 15.7625 11.1502L15.9471 10.5711ZM16.9054 12.3989C16.8949 12.4344 16.8784 12.456 16.8553 12.4723C16.8296 12.4878 16.7881 12.4934 16.7262 12.4934H16.5462L16.5568 12.2044H15.808L15.7776 13.6172C15.7764 13.7192 15.7869 13.7782 15.866 13.8254C15.9452 13.8844 16.189 13.8919 16.5171 13.8919H16.9864L17.1558 13.3631L16.7473 13.3842L16.6115 13.3917C16.5929 13.3842 16.5752 13.3774 16.5554 13.3588C16.5382 13.3427 16.5092 13.3526 16.5139 13.2506L16.5171 12.8885L16.9455 12.8718C17.1769 12.8718 17.2757 12.8008 17.3601 12.7333C17.4406 12.6685 17.4669 12.5941 17.4973 12.4934L17.5692 12.1728H16.9805L16.9054 12.3989Z" fill="white"/>
</g>
<defs>
<clipPath id="clip0_7959_24468">
<path d="M0 3C0 1.34315 1.34315 0 3 0H27C28.6569 0 30 1.34315 30 3V16C30 17.6569 28.6569 19 27 19H3C1.34315 19 0 17.6569 0 16V3Z" fill="white"/>
</clipPath>
</defs>
</svg>
