<svg width="30" height="19" viewBox="0 0 30 19" fill="none" xmlns="http://www.w3.org/2000/svg">
<path d="M0 3C0 1.34315 1.34315 0 3 0H27C28.6569 0 30 1.34315 30 3V16C30 17.6569 28.6569 19 27 19H3C1.34315 19 0 17.6569 0 16V3Z" fill="#CCECFF"/>
<path d="M19.3554 6.5332C19.3554 6.597 19.3554 6.6608 19.2877 6.7246C18.7462 9.27652 16.9865 10.1059 14.6854 10.1059H13.5348C13.2641 10.1059 12.9934 10.2973 12.9934 10.5525L12.3843 14.1252L12.2489 15.1459C12.2489 15.3373 12.3843 15.4649 12.5196 15.4649H14.6177C14.8884 15.4649 15.0915 15.2735 15.0915 15.0821V14.9545L15.4976 12.6578V12.5302C15.5652 12.275 15.7683 12.1474 15.9713 12.1474H16.3097C18.3401 12.1474 19.8968 11.3819 20.3029 9.14892C20.5059 8.19195 20.3706 7.42638 19.8968 6.91599C19.7614 6.7884 19.5584 6.6608 19.3554 6.5332Z" fill="#2199D6"/>
<path d="M18.8139 6.34178C18.7462 6.34178 18.6786 6.27799 18.5432 6.27799C18.4755 6.27799 18.3402 6.21419 18.2725 6.21419C17.9341 6.15039 17.5957 6.15039 17.2573 6.15039H14.144C14.0763 6.15039 14.0086 6.15039 13.9409 6.21419C13.8056 6.27799 13.6702 6.40558 13.6702 6.53318L12.9934 10.4887V10.6163C13.0611 10.3611 13.2641 10.1697 13.5348 10.1697H14.6854C16.9866 10.1697 18.7462 9.2765 19.2877 6.78837C19.2877 6.72457 19.2877 6.66078 19.3554 6.59698C19.22 6.53318 19.0846 6.46938 18.9493 6.40558C18.8816 6.34179 18.8139 6.34178 18.8139 6.34178Z" fill="#252C5E"/>
<path d="M13.6702 6.53366C13.6702 6.40607 13.8056 6.27847 13.9409 6.21467C14.0086 6.21467 14.0763 6.15088 14.144 6.15088H17.2573C17.5957 6.15088 18.0017 6.15087 18.2725 6.21467C18.3402 6.21467 18.4755 6.21467 18.5432 6.27847C18.6109 6.27847 18.6786 6.34227 18.8139 6.34227C18.8816 6.34227 18.8816 6.34227 18.9493 6.40607C19.0846 6.46987 19.22 6.53366 19.3554 6.59746C19.4907 5.64049 19.3554 5.00251 18.8139 4.42833C18.2048 3.79035 17.1219 3.53516 15.7683 3.53516H11.7751C11.5044 3.53516 11.2337 3.72655 11.2337 3.98174L9.60938 13.8066C9.60938 13.998 9.74474 14.1894 9.94778 14.1894H12.3843L12.9934 10.4891L13.6702 6.53366Z" fill="#263577"/>
</svg>
