<svg width="34" height="28" viewBox="0 0 34 28" fill="none" xmlns="http://www.w3.org/2000/svg">
<path d="M33.5 24.5C33.5 25.2956 33.1839 26.0587 32.6213 26.6213C32.0587 27.1839 31.2956 27.5 30.5 27.5H3.5C2.70435 27.5 1.94129 27.1839 1.37868 26.6213C0.816071 26.0587 0.5 25.2956 0.5 24.5V8C0.5 7.20435 0.816071 6.44129 1.37868 5.87868C1.94129 5.31607 2.70435 5 3.5 5H9.5L12.5 0.5H21.5L24.5 5H30.5C31.2956 5 32.0587 5.31607 32.6213 5.87868C33.1839 6.44129 33.5 7.20435 33.5 8V24.5Z" stroke="#222222" stroke-linecap="round" stroke-linejoin="round"/>
<path d="M17 21.5C20.3137 21.5 23 18.8137 23 15.5C23 12.1863 20.3137 9.5 17 9.5C13.6863 9.5 11 12.1863 11 15.5C11 18.8137 13.6863 21.5 17 21.5Z" stroke="#222222" stroke-linecap="round" stroke-linejoin="round"/>
</svg>
