<svg width="20" height="20" viewBox="0 0 20 20" fill="none" xmlns="http://www.w3.org/2000/svg">
<path d="M12.0416 5.33203H13.5C13.8094 5.33203 14.1061 5.45495 14.3249 5.67374C14.5437 5.89253 14.6666 6.18928 14.6666 6.4987V14.082C14.6666 14.3915 14.5437 14.6882 14.3249 14.907C14.1061 15.1258 13.8094 15.2487 13.5 15.2487H6.49998C6.19056 15.2487 5.89381 15.1258 5.67502 14.907C5.45623 14.6882 5.33331 14.3915 5.33331 14.082V6.4987C5.33331 6.18928 5.45623 5.89253 5.67502 5.67374C5.89381 5.45495 6.19056 5.33203 6.49998 5.33203H7.95831" stroke="#919191" stroke-linecap="round" stroke-linejoin="round"/>
<path d="M8.02888 5.04977C8.09197 4.79737 8.23761 4.5733 8.44265 4.41318C8.6477 4.25305 8.90038 4.16606 9.16054 4.16602H10.8388C11.099 4.16606 11.3516 4.25305 11.5567 4.41318C11.7617 4.5733 11.9074 4.79737 11.9705 5.04977L12.3333 6.49935H7.66663L8.02888 5.04977Z" stroke="#919191" stroke-linecap="round" stroke-linejoin="round"/>
<path d="M8.25 10H11.75" stroke="#919191" stroke-linecap="round"/>
<path d="M8.25 12.332H11.75" stroke="#919191" stroke-linecap="round"/>
<circle cx="10" cy="10" r="9.5" stroke="#919191"/>
</svg>
