<svg width="20" height="20" viewBox="0 0 20 20" fill="none" xmlns="http://www.w3.org/2000/svg">
<path d="M9.43358 4.48071C9.60686 4.38448 9.8018 4.33398 10 4.33398C10.1982 4.33398 10.3931 4.38448 10.5664 4.48071L14.9502 6.91554C15.0411 6.96608 15.1168 7.04 15.1695 7.12964C15.2222 7.21928 15.25 7.32138 15.25 7.42537V12.2291C15.25 12.4372 15.1943 12.6414 15.0887 12.8207C14.9832 13 14.8316 13.1478 14.6498 13.2488L10.5664 15.518C10.3931 15.6142 10.1982 15.6647 10 15.6647C9.8018 15.6647 9.60686 15.6142 9.43358 15.518L5.35025 13.2488C5.16846 13.1478 5.01695 13.0001 4.91142 12.821C4.80588 12.6418 4.75015 12.4377 4.75 12.2297V7.42537C4.75 7.32138 4.77779 7.21928 4.83051 7.12964C4.88323 7.04 4.95895 6.96608 5.04983 6.91554L9.43417 4.48071H9.43358Z" stroke="#919191" stroke-linecap="round" stroke-linejoin="round"/>
<path d="M10 9.9987V15.5404M4.75 7.08203L10 9.9987L4.75 7.08203ZM10 9.9987L15.25 7.08203L10 9.9987Z" stroke="#919191" stroke-linejoin="round"/>
<path d="M7.375 8.54167L12.625 5.625" stroke="#919191" stroke-linecap="round" stroke-linejoin="round"/>
<path d="M6.5 10.1895L8.25 11.1648" stroke="#919191" stroke-linecap="round" stroke-linejoin="round"/>
<circle cx="10" cy="10" r="9.5" stroke="#919191"/>
</svg>
