<svg width="68" height="68" viewBox="0 0 68 68" fill="none" xmlns="http://www.w3.org/2000/svg">
<mask id="mask0" mask-type="alpha" maskUnits="userSpaceOnUse" x="0" y="0" width="68" height="68">
<rect width="68" height="68" fill="#F93A3A"/>
</mask>
<g mask="url(#mask0)">
<path fill-rule="evenodd" clip-rule="evenodd" d="M26.2371 32.2813H41.2734C47.2148 32.2813 52.0312 27.4649 52.0312 21.5235V20.7266C52.0312 14.7852 47.2148 9.96877 41.2734 9.96877H18.5625C17.6823 9.96877 16.9687 10.6823 16.9687 11.5625V56.6829C16.9687 57.572 17.8542 58.4315 18.9366 58.2347C19.6027 58.1136 20.1115 57.6003 20.2489 57.0327L26.2371 32.2813ZM32.5078 40.2501H41.2734C51.6158 40.2501 60 31.8659 60 21.5235V20.7266C60 10.3842 51.6158 2 41.2734 2H18.5625C13.2813 2 9 6.28129 9 11.5625V56.6829C9 62.649 14.4922 67.1422 20.3621 66.075C24.0835 65.3984 27.1047 62.5829 27.9942 58.9066L32.5078 40.2501Z" fill="#F8F8F8"/>
<path fill-rule="evenodd" clip-rule="evenodd" d="M29.6157 52.2029H36.4919C45.0102 52.2029 51.9276 45.3486 52.0298 36.8545C49.4841 38.644 46.4725 39.8154 43.213 40.1509C41.9517 42.577 39.4153 44.2341 36.4919 44.2341H31.5436L29.6157 52.2029Z" fill="#F8F8F8" fill-opacity="0.5"/>
</g>
</svg>
