<svg width="151" height="150" viewBox="0 0 151 150" fill="none" xmlns="http://www.w3.org/2000/svg">
<rect x="0.5" width="150" height="150" fill="white"/>
<path fill-rule="evenodd" clip-rule="evenodd" d="M88.0244 108C88.0244 114.932 82.417 120.552 75.5 120.552C68.583 120.552 62.9756 114.932 62.9756 108C62.9756 107.775 62.9815 107.552 62.9931 107.331H36L45.2107 80.0375C45.6077 78.8609 46.7092 78.069 47.9486 78.069H103.051C104.291 78.069 105.392 78.8609 105.789 80.0375L115 107.331H88.0069C88.0185 107.552 88.0244 107.775 88.0244 108Z" fill="white"/>
<path fill-rule="evenodd" clip-rule="evenodd" d="M86.9617 109.779C86.9617 115.136 80.9877 119.929 75.0829 119.929C69.1782 119.929 64.3953 114.666 64.3953 109.31C64.3953 109.136 63.9329 107.61 63.9428 107.439H44.6707L52.5335 88.2798C52.8725 87.3706 53.8127 86.7587 54.8707 86.7587H96.1293C97.1873 86.7587 98.1275 87.3706 98.4665 88.2798L106.329 107.439L86.9468 108.296C86.9567 108.467 86.9617 109.605 86.9617 109.779Z" fill="#EDEDED"/>
<path fill-rule="evenodd" clip-rule="evenodd" d="M102.54 79.819C102.937 79.819 103.312 79.9456 103.619 80.1662C103.927 80.3868 104.166 80.7014 104.293 81.0774L113.25 107.618V132.4C113.25 132.911 113.043 133.373 112.708 133.708C112.373 134.043 111.911 134.25 111.4 134.25H39.6C39.0891 134.25 38.6266 134.043 38.2919 133.708C37.9571 133.373 37.75 132.911 37.75 132.4V107.618L46.7067 81.0774C46.8336 80.7014 47.0734 80.3868 47.3806 80.1662C47.6879 79.9456 48.0627 79.819 48.4596 79.819H102.54Z" stroke="#0F1D35" stroke-width="3.5"/>
<path fill-rule="evenodd" clip-rule="evenodd" d="M68.4999 117.323C68.2659 116.341 68.5415 115.849 69.3264 115.849C70.5039 115.849 71.8829 116.586 73.6513 116.586C75.4197 116.586 78.1705 115.674 79.709 114.473C81.2474 113.271 82.9281 112.165 82.9281 109.564C82.9281 106.962 83.2696 102.851 85.0128 102.851C86.1749 102.851 92.5773 102.851 104.22 102.851L105.526 106.068L86.9729 106.15L86.4294 109.564L85.0128 114.473L81.5624 117.323L76.9004 119.747H72.3317L68.4999 117.323Z" fill="#CCCCCC"/>
<path d="M99.6813 56.1544L88.9878 68.1781M74.6325 52V68.1781V52ZM49.4878 56.1544L60.1813 68.1781L49.4878 56.1544Z" stroke="#0F1D35" stroke-width="3.5" stroke-linecap="round" stroke-linejoin="round"/>
<path d="M42 108H44.3461M49.1809 108C52.9874 108 57.0953 108 61.5047 108C63.3189 108 63.3189 109.224 63.3189 109.857C63.3189 116.011 68.6335 121 75.1894 121C81.7452 121 87.0598 116.011 87.0598 109.857C87.0598 109.224 87.0598 108 88.8741 108H113" stroke="#0F1D35" stroke-width="3.5" stroke-linecap="round" stroke-linejoin="round"/>
<path fill-rule="evenodd" clip-rule="evenodd" d="M52.2876 41.4059C52.5358 41.2848 53.1786 42.0921 53.7233 43.209C54.268 44.3258 54.5084 45.3294 54.2602 45.4504C54.012 45.5715 53.3692 44.7642 52.8245 43.6473C52.2798 42.5305 52.0394 41.5269 52.2876 41.4059ZM51.3951 41.3942L51.44 41.4059C51.6882 41.5269 51.4478 42.5305 50.9031 43.6473C50.3583 44.7642 49.7155 45.5715 49.4673 45.4504C49.2191 45.3294 49.4595 44.3258 50.0043 43.209C50.549 42.0921 51.1918 41.2848 51.44 41.4059L51.3951 41.3942ZM52.84 40.7171C52.9021 40.448 53.934 40.4565 55.1448 40.736C56.3556 41.0155 57.2868 41.4603 57.2246 41.7293C57.1625 41.9984 56.1306 41.9899 54.9198 41.7104C53.709 41.4308 52.7778 40.9861 52.84 40.7171ZM48.5828 40.736C49.7936 40.4565 50.8255 40.448 50.8876 40.7171C50.9497 40.9861 50.0185 41.4308 48.8077 41.7104C47.597 41.9899 46.5651 41.9984 46.5029 41.7293C46.4408 41.4603 47.372 41.0155 48.5828 40.736ZM54.0901 38.0851C55.0558 37.3031 55.9795 36.8431 56.1533 37.0577C56.3271 37.2723 55.6851 38.0802 54.7194 38.8622C53.7537 39.6442 52.8299 40.1042 52.6562 39.8896C52.4824 39.675 53.1244 38.8671 54.0901 38.0851ZM47.5743 37.0577C47.748 36.8431 48.6718 37.3031 49.6375 38.0851C50.6032 38.8671 51.2452 39.675 51.0714 39.8896C50.8976 40.1042 49.9739 39.6442 49.0082 38.8622C48.0425 38.0802 47.4005 37.2723 47.5743 37.0577ZM51.8638 35C52.1399 35 52.3638 36.0074 52.3638 37.25C52.3638 38.4926 52.1399 39.5 51.8638 39.5C51.5876 39.5 51.3638 38.4926 51.3638 37.25C51.3638 36.0074 51.5876 35 51.8638 35Z" fill="#DEDEDE"/>
<path d="M127.25 81.375C127.25 77.8542 124.396 75 120.875 75C117.354 75 114.5 77.8542 114.5 81.375C114.5 84.8958 117.354 87.75 120.875 87.75C124.396 87.75 127.25 84.8958 127.25 81.375ZM116.321 81.375C116.321 78.8601 118.36 76.8214 120.875 76.8214C123.39 76.8214 125.429 78.8601 125.429 81.375C125.429 83.8899 123.39 85.9286 120.875 85.9286C118.36 85.9286 116.321 83.8899 116.321 81.375Z" fill="#C9C9C9"/>
<path d="M91.5 24.5C91.5 22.567 89.933 21 88 21C86.067 21 84.5 22.567 84.5 24.5C84.5 26.433 86.067 28 88 28C89.933 28 91.5 26.433 91.5 24.5ZM85.5 24.5C85.5 23.1193 86.6193 22 88 22C89.3807 22 90.5 23.1193 90.5 24.5C90.5 25.8807 89.3807 27 88 27C86.6193 27 85.5 25.8807 85.5 24.5Z" fill="#CDCDCD"/>
<path fill-rule="evenodd" clip-rule="evenodd" d="M112.372 46C112.8 46 113.146 46.3529 113.146 46.7708L113.146 49.097L115.473 49.0976C115.863 49.0976 116.186 49.3864 116.237 49.7663L116.244 49.872C116.244 50.2997 115.891 50.6464 115.473 50.6464L113.146 50.646L113.146 52.9731C113.146 53.3633 112.858 53.6859 112.478 53.7369L112.372 53.7439C111.944 53.7439 111.598 53.3911 111.598 52.9731L111.597 50.646L109.271 50.6464C108.845 50.6464 108.5 50.3026 108.5 49.872C108.5 49.4443 108.853 49.0976 109.271 49.0976L111.597 49.097L111.598 46.7708C111.598 46.3451 111.941 46 112.372 46Z" fill="#D0D0D0"/>
<path fill-rule="evenodd" clip-rule="evenodd" d="M23.1556 56C23.5921 56 23.9459 56.3564 23.9459 56.7831L23.945 59.559L25.7301 57.4325C25.9849 57.1288 26.4213 57.0673 26.7517 57.2767L26.8389 57.3406C27.1733 57.6212 27.2152 58.1217 26.941 58.4485L25.156 60.574L27.8903 60.0928C28.2807 60.024 28.6546 60.2574 28.773 60.6302L28.7988 60.7352C28.8746 61.1651 28.585 61.5755 28.1648 61.6495L25.431 62.131L27.8351 63.5193C28.1784 63.7175 28.3148 64.1367 28.1659 64.4983L28.1181 64.5954C27.8998 64.9734 27.4142 65.1016 27.0447 64.8883L24.641 63.5L25.5903 66.1087C25.7259 66.4812 25.561 66.89 25.2144 67.0713L25.1154 67.1149C24.7052 67.2642 24.2508 67.0503 24.1049 66.6494L23.155 64.041L22.2063 66.6494C22.0707 67.0219 21.6816 67.229 21.2995 67.1451L21.1957 67.1149C20.7855 66.9656 20.5749 66.5096 20.7208 66.1087L21.67 63.5L19.2664 64.8883C18.9231 65.0865 18.4919 64.9951 18.2532 64.6852L18.193 64.5954C17.9748 64.2173 18.1065 63.7326 18.476 63.5193L20.879 62.131L18.1463 61.6495C17.7559 61.5807 17.4844 61.2335 17.5007 60.8427L17.5124 60.7352C17.5882 60.3053 18.0007 60.0187 18.4208 60.0928L21.154 60.574L19.3701 58.4485C19.1174 58.1474 19.1303 57.7117 19.3877 57.4226L19.4722 57.3406C19.8066 57.06 20.3068 57.1056 20.5811 57.4325L22.365 59.559L22.3652 56.7831C22.3652 56.3866 22.66 56.059 23.0477 56.0071L23.1556 56ZM22.6051 60.8914L22.5205 60.9734C22.4093 61.0667 22.2798 61.1239 22.1464 61.1468C22.1819 61.242 22.1987 61.345 22.1943 61.4512L22.1826 61.5587C22.1637 61.6661 22.1237 61.7647 22.0678 61.8508L22.0072 61.931C22.0953 61.9816 22.1747 62.0499 22.2398 62.1344L22.3 62.2242C22.3725 62.3499 22.4064 62.4874 22.4057 62.6228C22.5056 62.6043 22.61 62.6056 22.7138 62.6284L22.8177 62.6586C22.9535 62.7081 23.0674 62.7911 23.1538 62.8946C23.2197 62.8175 23.3004 62.7515 23.3945 62.7022L23.4935 62.6586C23.6295 62.6091 23.7705 62.5995 23.9034 62.6235C23.9035 62.5221 23.9229 62.4196 23.9634 62.3212L24.0112 62.2242C24.0835 62.099 24.1852 62.0011 24.3023 61.934C24.2375 61.8559 24.1865 61.765 24.1543 61.6637L24.1285 61.5587C24.1096 61.4512 24.1135 61.345 24.1365 61.2449L24.166 61.1488C24.0659 61.1314 23.968 61.0944 23.8779 61.0373L23.7906 60.9734C23.6796 60.8802 23.6007 60.7627 23.5551 60.6354C23.4688 60.686 23.3696 60.7209 23.2635 60.7351L23.1556 60.7423C23.0101 60.7423 22.8737 60.7027 22.7567 60.6341L22.73 60.7026C22.6982 60.7699 22.6565 60.8336 22.6051 60.8914Z" fill="#D0D0D0"/>
</svg>
