<svg width="108" height="107" viewBox="0 0 108 107" fill="none" xmlns="http://www.w3.org/2000/svg">
<path fill-rule="evenodd" clip-rule="evenodd" d="M102.216 51.876C102.483 51.7461 103.173 52.6126 103.758 53.8115C104.343 55.0103 104.602 56.0875 104.335 56.2174C104.068 56.3474 103.378 55.4809 102.793 54.282C102.208 53.0831 101.95 52.006 102.216 51.876ZM101.258 51.8635L101.306 51.876C101.573 52.006 101.314 53.0831 100.729 54.282C100.144 55.4809 99.4537 56.3474 99.1871 56.2174C98.9205 56.0875 99.1787 55.0103 99.7638 53.8115C100.349 52.6126 101.039 51.7461 101.306 51.876L101.258 51.8635ZM102.81 51.1367C102.876 50.8478 103.985 50.8569 105.285 51.157C106.586 51.457 107.586 51.9344 107.519 52.2232C107.452 52.512 106.344 52.5029 105.044 52.2029C103.743 51.9028 102.743 51.4255 102.81 51.1367ZM98.2371 51.157C99.5376 50.8569 100.646 50.8478 100.713 51.1367C100.779 51.4255 99.7792 51.9028 98.4787 52.2029C97.1782 52.5029 96.0699 52.512 96.0032 52.2232C95.9364 51.9344 96.9366 51.457 98.2371 51.157ZM104.152 48.3115C105.19 47.4721 106.182 46.9784 106.368 47.2087C106.555 47.4391 105.865 48.3063 104.828 49.1457C103.791 49.9851 102.799 50.4789 102.612 50.2485C102.426 50.0181 103.115 49.1509 104.152 48.3115ZM97.1538 47.2087C97.3405 46.9784 98.3327 47.4721 99.3699 48.3115C100.407 49.1509 101.097 50.0181 100.91 50.2485C100.723 50.4789 99.7312 49.9851 98.694 49.1457C97.6567 48.3063 96.9672 47.4391 97.1538 47.2087ZM101.761 45C102.058 45 102.298 46.0813 102.298 47.4151C102.298 48.749 102.058 49.8303 101.761 49.8303C101.465 49.8303 101.224 48.749 101.224 47.4151C101.224 46.0813 101.465 45 101.761 45Z" fill="#DEDEDE"/>
<path d="M97.6944 25.8429C97.6944 22.0637 94.6288 19 90.8472 19C87.0656 19 84 22.0637 84 25.8429C84 29.6221 87.0656 32.6858 90.8472 32.6858C94.6288 32.6858 97.6944 29.6221 97.6944 25.8429ZM85.9563 25.8429C85.9563 23.1434 88.1461 20.9551 90.8472 20.9551C93.5484 20.9551 95.7381 23.1434 95.7381 25.8429C95.7381 28.5423 93.5484 30.7307 90.8472 30.7307C88.1461 30.7307 85.9563 28.5423 85.9563 25.8429Z" fill="#C9C9C9"/>
<path d="M42.5185 18.7569C42.5185 16.682 40.8354 15 38.7593 15C36.6831 15 35 16.682 35 18.7569C35 20.8317 36.6831 22.5138 38.7593 22.5138C40.8354 22.5138 42.5185 20.8317 42.5185 18.7569ZM36.0741 18.7569C36.0741 17.2748 37.2763 16.0734 38.7593 16.0734C40.2422 16.0734 41.4444 17.2748 41.4444 18.7569C41.4444 20.2389 40.2422 21.4404 38.7593 21.4404C37.2763 21.4404 36.0741 20.2389 36.0741 18.7569Z" fill="#CDCDCD"/>
<path fill-rule="evenodd" clip-rule="evenodd" d="M64.1588 0C64.6181 0 64.9905 0.378762 64.9905 0.827404L64.9902 3.3243L67.4896 3.32492C67.9088 3.32492 68.2552 3.63494 68.31 4.04268L68.3176 4.15615C68.3176 4.61522 67.9386 4.98738 67.4896 4.98738L64.9902 4.98699L64.9905 7.48489C64.9905 7.90377 64.6803 8.24995 64.2723 8.30474L64.1588 8.31229C63.6994 8.31229 63.327 7.93353 63.327 7.48489L63.3264 4.98699L60.8279 4.98738C60.3707 4.98738 60 4.61842 60 4.15615C60 3.69707 60.379 3.32492 60.8279 3.32492L63.3264 3.3243L63.327 0.827404C63.327 0.370441 63.6962 0 64.1588 0Z" fill="#D0D0D0"/>
<path fill-rule="evenodd" clip-rule="evenodd" d="M6.0745 34C6.54335 34 6.92343 34.3826 6.92343 34.8406L6.92241 37.8202L8.83971 35.5376C9.11341 35.2116 9.58216 35.1456 9.93696 35.3705L10.0307 35.439C10.3898 35.7402 10.4349 36.2774 10.1403 36.6283L8.22311 38.9097L11.16 38.3932C11.5793 38.3193 11.9809 38.5698 12.108 38.97L12.1357 39.0827C12.2171 39.5442 11.9061 39.9847 11.4548 40.0642L8.51848 40.581L11.1007 42.0712C11.4694 42.284 11.6159 42.7338 11.4559 43.1221L11.4046 43.2262C11.1702 43.632 10.6486 43.7696 10.2518 43.5407L7.66996 42.0505L8.68959 44.8506C8.83523 45.2505 8.65806 45.6892 8.2858 45.8839L8.17953 45.9307C7.73896 46.0909 7.25086 45.8613 7.09413 45.431L6.07389 42.6312L5.05487 45.431C4.90923 45.8309 4.49134 46.0531 4.08099 45.9631L3.96947 45.9307C3.5289 45.7704 3.30268 45.281 3.45941 44.8506L4.47889 42.0505L1.89725 43.5407C1.52848 43.7534 1.06541 43.6552 0.808965 43.3227L0.744375 43.2262C0.509951 42.8204 0.651465 42.3002 1.04832 42.0712L3.6293 40.581L0.694208 40.0642C0.274863 39.9903 -0.0167182 39.6176 0.000744164 39.1981L0.0133051 39.0827C0.0947197 38.6213 0.537747 38.3137 0.989036 38.3932L3.92467 38.9097L2.00867 36.6283C1.73722 36.305 1.75106 35.8373 2.02754 35.5271L2.11834 35.439C2.47749 35.1378 3.01474 35.1868 3.3093 35.5376L5.22537 37.8202L5.22558 34.8406C5.22558 34.415 5.5422 34.0633 5.95862 34.0077L6.0745 34ZM5.4832 39.2504L5.3924 39.3384C5.27299 39.4386 5.13388 39.5 4.99056 39.5245C5.02869 39.6267 5.04677 39.7373 5.04203 39.8513L5.02947 39.9667C5.00911 40.082 4.96616 40.1878 4.90613 40.2802L4.8411 40.3663C4.93568 40.4206 5.02099 40.4939 5.09092 40.5846L5.15551 40.681C5.23346 40.816 5.26985 40.9636 5.2691 41.1089C5.37639 41.0891 5.4885 41.0905 5.60005 41.1149L5.71157 41.1473C5.85743 41.2004 5.9798 41.2895 6.07255 41.4007C6.14343 41.3178 6.23011 41.247 6.33117 41.1942L6.43744 41.1473C6.58358 41.0942 6.73494 41.0839 6.87771 41.1097C6.87787 41.0008 6.89871 40.8907 6.9422 40.7852L6.99349 40.681C7.07117 40.5466 7.18038 40.4416 7.30614 40.3696C7.23654 40.2857 7.18176 40.1881 7.14722 40.0794L7.11954 39.9667C7.09918 39.8513 7.10335 39.7372 7.12812 39.6298L7.15975 39.5267C7.0523 39.508 6.94707 39.4683 6.8503 39.407L6.7566 39.3384C6.6373 39.2384 6.55265 39.1123 6.5036 38.9756C6.41094 39.03 6.3044 39.0674 6.19038 39.0826L6.0745 39.0903C5.91822 39.0903 5.7718 39.0478 5.64603 38.9742L5.61739 39.0478C5.58329 39.12 5.5385 39.1883 5.4832 39.2504Z" fill="#D0D0D0"/>
<path d="M24 77L27.0786 40.0565C27.2226 38.3289 28.6668 37 30.4004 37H77.5996C79.3332 37 80.7774 38.3289 80.9214 40.0565L84 77M24 77V93.6667C24 95.5076 25.4924 97 27.3333 97H80.6667C82.5076 97 84 95.5076 84 93.6667V77M24 77H44C44 80.3333 46 87 54 87C62 87 64 80.3333 64 77H84" stroke="#222222" stroke-width="2.5" stroke-linejoin="round"/>
</svg>
