<svg width="109" height="107" viewBox="0 0 109 107" fill="none" xmlns="http://www.w3.org/2000/svg">
<path fill-rule="evenodd" clip-rule="evenodd" d="M57.2163 8.87602C57.4829 8.74608 58.1733 9.61261 58.7584 10.8115C59.3435 12.0103 59.6017 13.0875 59.3351 13.2174C59.0685 13.3474 58.3781 12.4809 57.793 11.282C57.2079 10.0831 56.9497 9.00595 57.2163 8.87602ZM56.2577 8.86347L56.3059 8.87602C56.5725 9.00595 56.3143 10.0831 55.7292 11.282C55.1441 12.4809 54.4537 13.3474 54.1871 13.2174C53.9205 13.0875 54.1787 12.0103 54.7638 10.8115C55.3489 9.61261 56.0393 8.74608 56.3059 8.87602L56.2577 8.86347ZM57.8096 8.13665C57.8763 7.84784 58.9846 7.85695 60.2851 8.157C61.5856 8.45705 62.5858 8.93442 62.519 9.22323C62.4523 9.51204 61.344 9.50293 60.0435 9.20288C58.743 8.90283 57.7429 8.42547 57.8096 8.13665ZM53.2371 8.157C54.5376 7.85695 55.6459 7.84784 55.7126 8.13665C55.7793 8.42547 54.7792 8.90283 53.4787 9.20288C52.1782 9.50293 51.0699 9.51204 51.0032 9.22323C50.9364 8.93442 51.9366 8.45705 53.2371 8.157ZM59.1523 5.31151C60.1896 4.4721 61.1817 3.97836 61.3684 4.20871C61.555 4.43906 60.8655 5.30628 59.8282 6.1457C58.791 6.98511 57.7988 7.47886 57.6122 7.2485C57.4255 7.01815 58.1151 6.15093 59.1523 5.31151ZM52.1538 4.20871C52.3405 3.97836 53.3327 4.4721 54.3699 5.31151C55.4071 6.15093 56.0967 7.01815 55.91 7.2485C55.7234 7.47886 54.7312 6.98511 53.694 6.1457C52.6567 5.30628 51.9672 4.43906 52.1538 4.20871ZM56.7611 2C57.0577 2 57.2981 3.08129 57.2981 4.41514C57.2981 5.74898 57.0577 6.83028 56.7611 6.83028C56.4645 6.83028 56.2241 5.74898 56.2241 4.41514C56.2241 3.08129 56.4645 2 56.7611 2Z" fill="#DEDEDE"/>
<path d="M95.6944 75.8429C95.6944 72.0637 92.6288 69 88.8472 69C85.0656 69 82 72.0637 82 75.8429C82 79.6221 85.0656 82.6858 88.8472 82.6858C92.6288 82.6858 95.6944 79.6221 95.6944 75.8429ZM83.9563 75.8429C83.9563 73.1434 86.1461 70.9551 88.8472 70.9551C91.5484 70.9551 93.7381 73.1434 93.7381 75.8429C93.7381 78.5423 91.5484 80.7307 88.8472 80.7307C86.1461 80.7307 83.9563 78.5423 83.9563 75.8429Z" fill="#C9C9C9"/>
<path d="M21.5185 26.7569C21.5185 24.682 19.8354 23 17.7593 23C15.6831 23 14 24.682 14 26.7569C14 28.8317 15.6831 30.5138 17.7593 30.5138C19.8354 30.5138 21.5185 28.8317 21.5185 26.7569ZM15.0741 26.7569C15.0741 25.2748 16.2763 24.0734 17.7593 24.0734C19.2422 24.0734 20.4444 25.2748 20.4444 26.7569C20.4444 28.2389 19.2422 29.4404 17.7593 29.4404C16.2763 29.4404 15.0741 28.2389 15.0741 26.7569Z" fill="#CDCDCD"/>
<path fill-rule="evenodd" clip-rule="evenodd" d="M104.159 27C104.618 27 104.991 27.3788 104.991 27.8274L104.99 30.3243L107.49 30.3249C107.909 30.3249 108.255 30.6349 108.31 31.0427L108.318 31.1561C108.318 31.6152 107.939 31.9874 107.49 31.9874L104.99 31.987L104.991 34.4849C104.991 34.9038 104.68 35.25 104.272 35.3047L104.159 35.3123C103.699 35.3123 103.327 34.9335 103.327 34.4849L103.326 31.987L100.828 31.9874C100.371 31.9874 100 31.6184 100 31.1561C100 30.6971 100.379 30.3249 100.828 30.3249L103.326 30.3243L103.327 27.8274C103.327 27.3704 103.696 27 104.159 27Z" fill="#D0D0D0"/>
<path fill-rule="evenodd" clip-rule="evenodd" d="M10.0745 57C10.5433 57 10.9234 57.3826 10.9234 57.8406L10.9224 60.8202L12.8397 58.5376C13.1134 58.2116 13.5822 58.1456 13.937 58.3705L14.0307 58.439C14.3898 58.7402 14.4349 59.2774 14.1403 59.6283L12.2231 61.9097L15.16 61.3932C15.5793 61.3193 15.9809 61.5698 16.108 61.97L16.1357 62.0827C16.2171 62.5442 15.9061 62.9847 15.4548 63.0642L12.5185 63.581L15.1007 65.0712C15.4694 65.284 15.6159 65.7338 15.4559 66.1221L15.4046 66.2262C15.1702 66.632 14.6486 66.7696 14.2518 66.5407L11.67 65.0505L12.6896 67.8506C12.8352 68.2505 12.6581 68.6892 12.2858 68.8839L12.1795 68.9307C11.739 69.0909 11.2509 68.8613 11.0941 68.431L10.0739 65.6312L9.05487 68.431C8.90923 68.8309 8.49134 69.0531 8.08099 68.9631L7.96947 68.9307C7.5289 68.7704 7.30268 68.281 7.45941 67.8506L8.47889 65.0505L5.89725 66.5407C5.52848 66.7534 5.06541 66.6552 4.80896 66.3227L4.74437 66.2262C4.50995 65.8204 4.65147 65.3002 5.04832 65.0712L7.6293 63.581L4.69421 63.0642C4.27486 62.9903 3.98328 62.6176 4.00074 62.1981L4.01331 62.0827C4.09472 61.6213 4.53775 61.3137 4.98904 61.3932L7.92467 61.9097L6.00867 59.6283C5.73722 59.305 5.75106 58.8373 6.02754 58.5271L6.11834 58.439C6.47749 58.1378 7.01474 58.1868 7.3093 58.5376L9.22537 60.8202L9.22558 57.8406C9.22558 57.415 9.5422 57.0633 9.95862 57.0077L10.0745 57ZM9.4832 62.2504L9.3924 62.3384C9.27299 62.4386 9.13388 62.5 8.99056 62.5245C9.02869 62.6267 9.04677 62.7373 9.04203 62.8513L9.02947 62.9667C9.00911 63.082 8.96616 63.1878 8.90613 63.2802L8.8411 63.3663C8.93568 63.4206 9.02099 63.4939 9.09092 63.5846L9.15551 63.681C9.23346 63.816 9.26985 63.9636 9.2691 64.1089C9.37639 64.0891 9.4885 64.0905 9.60005 64.1149L9.71157 64.1473C9.85743 64.2004 9.9798 64.2895 10.0726 64.4007C10.1434 64.3178 10.2301 64.247 10.3312 64.1942L10.4374 64.1473C10.5836 64.0942 10.7349 64.0839 10.8777 64.1097C10.8779 64.0008 10.8987 63.8907 10.9422 63.7852L10.9935 63.681C11.0712 63.5466 11.1804 63.4416 11.3061 63.3696C11.2365 63.2857 11.1818 63.1881 11.1472 63.0794L11.1195 62.9667C11.0992 62.8513 11.1034 62.7372 11.1281 62.6298L11.1598 62.5267C11.0523 62.508 10.9471 62.4683 10.8503 62.407L10.7566 62.3384C10.6373 62.2384 10.5527 62.1123 10.5036 61.9756C10.4109 62.03 10.3044 62.0674 10.1904 62.0826L10.0745 62.0903C9.91822 62.0903 9.7718 62.0478 9.64603 61.9742L9.61739 62.0478C9.58329 62.12 9.5385 62.1883 9.4832 62.2504Z" fill="#D0D0D0"/>
<path d="M52.4146 22.6455C55.7618 21.871 59.2794 22.4511 62.2005 24.2595L82.5371 37.0501C82.7621 37.1916 82.9217 37.4168 82.9807 37.676C83.0398 37.9352 82.9934 38.2072 82.8519 38.4322C82.2635 39.3678 82.5449 40.6032 83.4805 41.1916L83.5211 41.2172C84.4792 41.8197 85.7443 41.5316 86.3468 40.5735L86.5887 40.189C86.7357 39.9553 87.0444 39.8849 87.2781 40.032L91.5185 42.6989C91.7522 42.8459 91.8225 43.1546 91.6755 43.3884L85.8104 52.7136C85.6634 52.9474 85.3547 53.0177 85.121 52.8707L80.8806 50.2037C80.6469 50.0567 80.5766 49.748 80.7236 49.5143L80.9654 49.1297C81.568 48.1717 81.2798 46.9066 80.3218 46.3041L80.2811 46.2785C79.3455 45.6901 78.1101 45.9715 77.5217 46.907C77.3802 47.1321 77.155 47.2917 76.8959 47.3507C76.6367 47.4097 76.3646 47.3634 76.1396 47.2219L72.8906 45.1784C71.7218 44.4433 70.1784 44.7949 69.4433 45.9636L60.7086 59.8514C60.3556 60.4127 60.24 61.0912 60.3873 61.7377L60.8597 63.8117C60.8892 63.941 60.8661 64.0767 60.7955 64.1889L39.9728 97.2961C39.2658 98.4202 38.1412 99.2174 36.8465 99.5124C35.5517 99.8073 34.1928 99.5758 33.0687 98.8688L29.7601 96.7879C28.636 96.0809 27.8388 94.9563 27.5439 93.6616C27.249 92.3668 27.4805 91.0079 28.1874 89.8838L49.0101 56.7766C49.0807 56.6643 49.193 56.5847 49.3223 56.5553L51.3963 56.0828C52.0428 55.9356 52.6043 55.5375 52.9573 54.9763L61.692 41.0884C62.4271 39.9197 62.0755 38.3763 60.9067 37.6412L59.19 36.5614C58.5154 36.1372 58.037 35.4623 57.86 34.6853C57.6891 33.9349 57.8128 33.1486 58.2037 32.488C58.2633 32.3873 58.3242 32.2687 58.3747 32.1335C58.712 31.2293 58.3633 30.4074 57.8279 29.892C57.3161 29.3993 56.5848 29.1154 55.8578 29.1167C55.7971 29.1168 55.7336 29.1155 55.6655 29.1142C55.252 29.1062 54.6697 29.0948 53.5236 29.3617C51.5837 29.8135 49.2856 31.3599 47.5662 32.9609C47.3691 33.1444 47.0349 33.2397 46.6918 33.1747C46.3542 33.1107 46.1767 32.9315 46.1195 32.7549L44.6517 28.2237C44.6029 28.0731 44.6315 27.9397 44.6911 27.8547C46.5302 25.2312 49.2784 23.3713 52.4146 22.6455Z" stroke="#222222" stroke-width="2"/>
</svg>
