<svg width="20" height="20" viewBox="0 0 20 20" fill="none" xmlns="http://www.w3.org/2000/svg">
<circle cx="10" cy="10" r="10" fill="white" fill-opacity="0.8"/>
<path d="M11.8 6.99998V8.91998H8.20004V6.99998C8.20004 6.00586 9.00592 5.19998 10 5.19998C10.9941 5.19998 11.8 6.00586 11.8 6.99998Z" stroke="#222222" stroke-width="1.2"/>
<path fill-rule="evenodd" clip-rule="evenodd" d="M6.80005 8.80005C6.24776 8.80005 5.80005 9.24776 5.80005 9.80005V14.4001C5.80005 14.9523 6.24776 15.4001 6.80005 15.4001H13.2C13.7523 15.4001 14.2 14.9523 14.2 14.4001V9.80005C14.2 9.24776 13.7523 8.80005 13.2 8.80005H6.80005ZM10 10.6C9.75152 10.6 9.55005 10.8015 9.55005 11.05V13.15C9.55005 13.3986 9.75152 13.6 10 13.6C10.2486 13.6 10.45 13.3986 10.45 13.15V11.05C10.45 10.8015 10.2486 10.6 10 10.6Z" fill="#222222"/>
</svg>
