<svg width="10" height="12" viewBox="0 0 10 12" fill="none" xmlns="http://www.w3.org/2000/svg">
<path d="M9 5.09091C9 8.27273 5 11 5 11C5 11 1 8.27273 1 5.09091C1 4.00593 1.42143 2.96539 2.17157 2.1982C2.92172 1.43101 3.93913 1 5 1C6.06087 1 7.07828 1.43101 7.82843 2.1982C8.57857 2.96539 9 4.00593 9 5.09091Z" stroke="black" stroke-width="0.6" stroke-linecap="round" stroke-linejoin="round"/>
<path d="M5 6C5.55228 6 6 5.55228 6 5C6 4.44772 5.55228 4 5 4C4.44772 4 4 4.44772 4 5C4 5.55228 4.44772 6 5 6Z" stroke="black" stroke-width="0.6" stroke-linecap="round" stroke-linejoin="round"/>
</svg>
