<svg width="14" height="11" viewBox="0 0 14 11" fill="none" xmlns="http://www.w3.org/2000/svg">
<path d="M1.4 1.03125C1.4 0.461699 1.87009 0 2.45 0H8.05C8.62969 0 9.1 0.461699 9.1 1.03125V5.5H13.3V7.5625C13.6872 7.5625 14 7.86973 14 8.25C14 8.63027 13.6872 8.9375 13.3 8.9375H12.6C12.6 10.0762 11.6594 11 10.5 11C9.32094 11 8.4 10.0762 8.4 8.9375H5.6C5.6 10.0762 4.65937 11 3.5 11C2.32094 11 1.4 10.0762 1.4 8.9375V6.1875H4.55C4.7425 6.1875 4.9 6.03281 4.9 5.84375C4.9 5.65469 4.7425 5.5 4.55 5.5H0.35C0.156712 5.5 0 5.34531 0 5.15625C0 4.96719 0.156712 4.8125 0.35 4.8125H5.25C5.4425 4.8125 5.6 4.65781 5.6 4.46875C5.6 4.27969 5.4425 4.125 5.25 4.125H1.05C0.856625 4.125 0.7 3.97031 0.7 3.78125C0.7 3.59219 0.856625 3.4375 1.05 3.4375H5.95C6.1425 3.4375 6.3 3.28281 6.3 3.09375C6.3 2.90469 6.1425 2.75 5.95 2.75H0.35C0.156712 2.75 0 2.59531 0 2.40625C0 2.21719 0.156712 2.0625 0.35 2.0625H1.4V1.03125ZM3.5 9.96875C4.07969 9.96875 4.55 9.50684 4.55 8.9375C4.55 8.36816 4.07969 7.90625 3.5 7.90625C2.92031 7.90625 2.45 8.36816 2.45 8.9375C2.45 9.50684 2.92031 9.96875 3.5 9.96875ZM10.5 7.90625C9.92031 7.90625 9.45 8.36816 9.45 8.9375C9.45 9.50684 9.92031 9.96875 10.5 9.96875C11.0797 9.96875 11.55 9.50684 11.55 8.9375C11.55 8.36816 11.0797 7.90625 10.5 7.90625ZM10.2091 3.4375H8.75V2.0625H10.2091C10.5809 2.0625 10.9178 2.20645 11.2 2.46426L12.8909 4.125C13.1534 4.38281 13.3 4.73301 13.3 5.09824V6.1875H11.9V5.09824L10.2091 3.4375Z" fill="black"/>
</svg>
