<svg width="11" height="12" viewBox="0 0 11 12" fill="none" xmlns="http://www.w3.org/2000/svg">
<path d="M3.66667 1H7.66667C7.84348 1 8.01305 1.07024 8.13807 1.19526C8.26309 1.32029 8.33333 1.48986 8.33333 1.66667V5C8.33333 5.70724 8.05238 6.38552 7.55228 6.88562C7.05219 7.38572 6.37391 7.66667 5.66667 7.66667C4.95942 7.66667 4.28114 7.38572 3.78105 6.88562C3.28095 6.38552 3 5.70724 3 5V1.66667C3 1.48986 3.07024 1.32029 3.19526 1.19526C3.32029 1.07024 3.48986 1 3.66667 1ZM5.66667 7.66667V9.66667V7.66667ZM3.66667 9.66667H7.66667C7.84348 9.66667 8.01305 9.7369 8.13807 9.86193C8.26309 9.98695 8.33333 10.1565 8.33333 10.3333C8.33333 10.5101 8.26309 10.6797 8.13807 10.8047C8.01305 10.9298 7.84348 11 7.66667 11H3.66667C3.48986 11 3.32029 10.9298 3.19526 10.8047C3.07024 10.6797 3 10.5101 3 10.3333C3 10.1565 3.07024 9.98695 3.19526 9.86193C3.32029 9.7369 3.48986 9.66667 3.66667 9.66667ZM8.33333 2.33333H9.66667C9.84348 2.33333 10.013 2.40357 10.1381 2.5286C10.2631 2.65362 10.3333 2.82319 10.3333 3V3.66667C10.3333 4.02029 10.1929 4.35943 9.94281 4.60948C9.69276 4.85952 9.35362 5 9 5H8.33333V2.33333ZM3 2.33333H1.66667C1.48986 2.33333 1.32029 2.40357 1.19526 2.5286C1.07024 2.65362 1 2.82319 1 3V3.66667C1 4.02029 1.14048 4.35943 1.39052 4.60948C1.64057 4.85952 1.97971 5 2.33333 5H3V2.33333Z" stroke="black" stroke-width="0.6" stroke-linecap="round" stroke-linejoin="round"/>
</svg>
